#N canvas 796 630 513 190 10;
#X text 11 135 LICENSE GNU GPL;
#X text 10 18 NAME pmpd;
#X text 9 155 VERSION 0.13;
#X text 10 38 AUTHOR Cyrille Henry with contributions from Ben Bogart \, Nicolas Montgermont \, Marco Donnarumma \, Antoine villeret \, Benjamin Wesch and others...;
#X text 10 86 DESCRIPTION Pmpd is a library for Pure Data allowing particular physics modelling. Control data generation \, as well as audio synthesis are possible.;
