#N canvas 834 164 515 653 12;
#X declare -path pmpd;
#N canvas 50 112 623 384 read 0;
#X text 412 312 ch20031213;
#X text 30 25 The aim of this collection of objects is to simulate physical behavior with pure data. It's not audio synthesis. But it can be used for the creation of parameters that can be used for driving audio or video synthesis.;
#X text 122 263 http://www.chnry.net/ch/?120-pmpd&lang=en;
#X text 123 207 ch@chnry.net;
#X text 30 101 Most of the examples use GEM for visualization of the "physical" geometry \, but it's not mandatory.;
#X text 30 161 Any comments \, criticism \, suggestions \, help is highly appreciated :;
#X text 28 240 Information can be found online:;
#X restore 69 316 pd read me first;
#N canvas 50 92 663 567 basics 0;
#X text 29 272 This collection of objects can be interconnected for the creation of "physical" structures. These structures can then move \, and distort themselves \, according to forces applied to them.;
#X text 29 350 The resulting movements are very natural \, due to the physical equations used to define the objects.;
#X text 29 395 You have to declare the path of the pmpd externals to use them \, for example:;
#X text 34 30 Objects in this collection can be mass \, link and interactor in 1D \, 2D or 3D.;
#X text 47 69 Masses (mass \, mass2D \, mass3D) are point-like entities\, characterized by their weight and position. They can move when receiving forces according to physical rules.;
#X text 47 126 Links (link \, link2D \, link3D) represent the fundamental interaction between 2 masses. They are viscoelastic connections. The link object receives the position of 2 masses \, computes the force between the 2 masses and outputs a force for each mass.;
#X text 47 202 Interactors are a kind of link \, but influence a group of masses at once. They can be used for global interaction. We will look further into this later.;
#X obj 31 441 declare -path pmpd;
#X restore 69 344 pd basics;
#N canvas 789 185 645 737 global_description 0;
#X obj 35 149 bng 15 250 50 0 empty empty empty 0 -6 0 8 #fcfcfc #000000 #000000;
#X obj 35 268 print;
#X obj 35 217 bng 15 250 50 0 empty empty empty 0 -6 0 8 #fcfcfc #000000 #000000;
#X text 58 145 1;
#X text 59 216 2;
#X obj 40 591 link;
#X text 36 529 You can also create things like this :;
#X text 160 236 clicking on bang 1 or 2 is equivalent;
#X text 32 361 Masses output their position when you bang them. The position results from the forces applied to a mass.;
#X text 37 627 mass1 will never receive forces \, so it will never move. This is useful for creating structures attached to a fixed point.;
#X obj 106 489 mass;
#X obj 152 489 link;
#X obj 191 489 mass;
#X obj 35 168 s \$0-foo1;
#X obj 40 558 mass \$0-mass1;
#X obj 76 591 mass \$0-mass2;
#X text 32 23 To simplify patching \, objects within this collection only have "cold" inlets. The computation speed depends on an external metronome\, which should alternately bang all links and masses of the model.;
#X text 33 103 Masses and links can be assigned individual names or class names. They will receive any input sent to this name.;
#X text 32 304 As you should send a bang alternately to links and masses \, you should give different names to the links group and masses group.;
#X text 32 401 Links output a force according to the position of the connected masses when you bang them. This force should be applied to these same masses through connections in the opposite direction.;
#X text 32 451 Here is the basic connection between 2 masses :;
#X obj 35 237 mass2D \$0-foo1;
#X connect 0 0 13 0;
#X connect 2 0 21 0;
#X connect 5 1 15 0;
#X connect 10 0 11 0;
#X connect 11 0 10 0;
#X connect 11 1 12 0;
#X connect 12 0 11 1;
#X connect 14 0 5 0;
#X connect 15 0 5 1;
#X connect 21 0 1 0;
#X restore 69 373 pd global_description;
#N canvas 50 97 762 661 test 0;
#X msg 104 114 1;
#X msg 70 114 0;
#X msg 37 114 -1;
#X msg 137 114 2;
#X obj 15 16 loadbang;
#X floatatom 37 185 9 0 0 0 - - - 0;
#X msg 106 390 1;
#X msg 72 390 0;
#X msg 39 390 -1;
#X msg 139 390 2;
#X floatatom 39 461 5 0 0 0 - - - 0;
#X floatatom 37 325 5 0 0 0 - - - 0;
#X msg 106 508 1;
#X msg 72 508 0;
#X msg 39 508 -1;
#X msg 139 508 2;
#X floatatom 39 579 5 0 0 0 - - - 0;
#X floatatom 172 267 5 0 0 0 - - - 0;
#X msg 104 264 1;
#X msg 70 264 0;
#X msg 37 264 -1;
#X msg 137 264 2;
#X obj 15 43 metro 300;
#X obj 15 69 s \$0-foo2;
#X obj 37 158 mass \$0-foo2 10 0 0;
#X obj 37 298 link \$0-foo2 0 0.1 0;
#X obj 39 434 link \$0-foo2 0 0 0.1;
#X obj 39 552 link \$0-foo2 0 0.1 0.1;
#X text 250 125 Applying a force to a mass makes it move at a constant velocity. Its acceleration or deceleration can be controlled through messages. A force of 0 has no effect.;
#X text 249 265 Rigidity link : the force is proportional to the elongation of the link. (the right inlet is not used \, so the link take is default value : 0.). Length of the link is 0.;
#X text 250 405 Viscosity link : the force is proportional to the deformation speed of the link;
#X text 248 529 Visco-elastic link : the effect is the sum of the 2 previous links.;
#X connect 0 0 24 0;
#X connect 1 0 24 0;
#X connect 2 0 24 0;
#X connect 3 0 24 0;
#X connect 4 0 22 0;
#X connect 6 0 26 0;
#X connect 7 0 26 0;
#X connect 8 0 26 0;
#X connect 9 0 26 0;
#X connect 12 0 27 0;
#X connect 13 0 27 0;
#X connect 14 0 27 0;
#X connect 15 0 27 0;
#X connect 17 0 25 0;
#X connect 18 0 25 0;
#X connect 19 0 25 0;
#X connect 20 0 25 0;
#X connect 21 0 25 0;
#X connect 22 0 23 0;
#X connect 24 0 5 0;
#X connect 25 0 11 0;
#X connect 26 0 10 0;
#X connect 27 0 16 0;
#X restore 71 494 pd test;
#X obj 96 432 mass;
#X obj 96 462 link;
#N canvas 100 117 451 696 list 0;
#X obj 190 135 iAmbient2D;
#X obj 305 137 iAmbient3D;
#X obj 190 166 iCircle2D;
#X obj 306 257 iCylinder3D;
#X obj 305 227 iCircle3D;
#X obj 190 196 iLine2D;
#X obj 305 197 iPlane3D;
#X obj 190 225 iSeg2D;
#X obj 305 168 iSphere3D;
#X obj 192 75 link2D;
#X obj 306 75 link3D;
#X obj 79 76 link;
#X obj 79 48 mass;
#X obj 192 48 mass2D;
#X obj 306 48 mass3D;
#X text 78 25 1D;
#X text 191 27 2D;
#X text 304 28 3D;
#X text 21 46 basic;
#X text 19 136 interactors;
#X text 24 328 test;
#X obj 192 327 tLink2D;
#X obj 307 327 tLink3D;
#X obj 192 389 tCircle2D;
#X obj 192 419 tLine2D;
#X obj 192 448 tSeg2D;
#X obj 305 480 tCylinder3D;
#X obj 306 420 tPlane3D;
#X obj 306 450 tCircle3D;
#X obj 306 390 tSphere3D;
#X obj 192 358 tSquare2D;
#X obj 307 359 tCube3D;
#X obj 190 579 pmpd;
#X obj 308 578 pmpd~;
#X obj 190 601 pmpd2d;
#X obj 190 623 pmpd3d;
#X obj 308 601 pmpd2d~;
#X obj 308 623 pmpd3d~;
#X text 12 553 full simulation objects :;
#X restore 71 551 pd list of pmpd's object;
#X obj 10 200 cnv 15 15 15 Ma1 M1 empty 2 10 0 14 #000000 #404040 0;
#X obj 24 185 cnv 15 15 15 Ma3 M3 empty 2 10 0 14 #000000 #404040 0;
#X obj 39 172 cnv 15 15 15 Ma5 M5 empty 2 10 0 14 #000000 #404040 0;
#X obj 79 200 cnv 15 15 15 Ma9 M9 empty 2 10 0 14 #000000 #404040 0;
#X obj 183 200 cnv 15 15 15 empty M29 empty 2 10 0 14 #000000 #404040 0;
#X obj 120 200 cnv 15 15 15 Ma2 M2 empty 2 10 0 14 #000000 #404040 0;
#X obj 120 160 cnv 15 15 15 Ma4 M4 empty 2 10 0 14 #000000 #404040 0;
#X obj 100 170 cnv 15 15 15 Ma6 M6 empty 2 10 0 14 #000000 #404040 0;
#X obj 79 160 cnv 15 15 15 Ma8 M8 empty 2 10 0 14 #000000 #404040 0;
#X obj 119 180 cnv 15 15 15 Ma11 M11 empty 2 10 0 14 #000000 #404040 0;
#X obj 80 180 cnv 15 15 15 Ma12 M12 empty 2 10 0 14 #000000 #404040 0;
#X obj 184 172 cnv 15 15 15 Ma14 M14 empty 2 10 0 14 #000000 #404040 0;
#X obj 198 187 cnv 15 15 15 Ma13 M13 empty 2 10 0 14 #000000 #404040 0;
#X obj 169 185 cnv 15 15 15 Ma15 M15 empty 2 10 0 14 #000000 #404040 0;
#X obj 239 180 cnv 15 15 15 empty M30 empty 2 10 0 14 #000000 #404040 0;
#X obj 260 160 cnv 15 15 15 Ma20 M20 empty 2 10 0 14 #000000 #404040 0;
#X obj 259 180 cnv 15 15 15 Ma17 M17 empty 2 10 0 14 #000000 #404040 0;
#X obj 239 200 cnv 15 15 15 Ma19 M19 empty 2 10 0 14 #000000 #404040 0;
#X obj 259 200 cnv 15 15 15 Ma18 M18 empty 2 10 0 14 #000000 #404040 0;
#N canvas 50 87 470 320 pmpd 0;
#X msg 143 132 reset;
#X obj 7 70 tgl 15 0 empty empty empty 0 -6 0 8 #fcfcfc #000000 #000000 0 1;
#X obj 7 88 metro 50;
#N canvas 979 123 1126 757 structure 0;
#N canvas 50 82 478 328 mass1 0;
#X obj 79 57 inlet;
#X obj 79 195 outlet;
#X obj 79 84 mass2D \$0-mass1 1 10 50 0 1000 0 200;
#X obj 93 155 s M1;
#X msg 102 110 pos \$1 \$2;
#X connect 0 0 2 0;
#X connect 2 0 4 0;
#X connect 2 0 1 0;
#X connect 4 0 3 0;
#X restore 14 253 pd mass1;
#N canvas 50 82 470 320 mass3 0;
#X obj 79 57 inlet;
#X obj 79 195 outlet;
#X obj 79 84 mass2D \$0-mass1 1 10 30 0 1000 0 200;
#X obj 102 160 s M3;
#X msg 102 117 pos \$1 \$2;
#X connect 0 0 2 0;
#X connect 2 0 4 0;
#X connect 2 0 1 0;
#X connect 4 0 3 0;
#X restore 23 143 pd mass3;
#N canvas 50 82 474 324 mass5 0;
#X obj 79 57 inlet;
#X obj 79 195 outlet;
#X obj 75 84 mass2D \$0-mass1 1 10 10 0 1000 0 200;
#X obj 93 137 s M5;
#X msg 91 112 pos \$1 \$2;
#X connect 0 0 2 0;
#X connect 2 0 4 0;
#X connect 2 0 1 0;
#X connect 4 0 3 0;
#X restore 26 58 pd mass5;
#N canvas 50 82 472 322 mass7 0;
#X obj 79 57 inlet;
#X obj 79 195 outlet;
#X obj 79 84 mass2D \$0-mass1 1 30 10 0 1000 0 200;
#X obj 103 155 s M7;
#X msg 96 113 pos \$1 \$2;
#X connect 0 0 2 0;
#X connect 2 0 4 0;
#X connect 2 0 1 0;
#X connect 4 0 3 0;
#X restore 324 62 pd mass7;
#X obj 132 -19 r G;
#N canvas 50 82 494 344 mass2 0;
#X obj 79 57 inlet;
#X obj 81 186 outlet;
#X obj 79 82 mass2D \$0-mass1 1 120 50 0 1000 0 200;
#X obj 105 158 s M2;
#X msg 107 111 pos \$1 \$2;
#X connect 0 0 2 0;
#X connect 2 0 4 0;
#X connect 2 0 1 0;
#X connect 4 0 3 0;
#X restore 486 317 pd mass2;
#N canvas 50 82 486 336 mass4 0;
#X obj 79 57 inlet;
#X obj 79 195 outlet;
#X obj 79 84 mass2D \$0-mass1 1 120 10 0 1000 0 200;
#X obj 95 159 s M4;
#X msg 97 116 pos \$1 \$2;
#X connect 0 0 2 0;
#X connect 2 0 4 0;
#X connect 2 0 1 0;
#X connect 4 0 3 0;
#X restore 503 33 pd mass4;
#N canvas 50 82 484 334 mass6 0;
#X obj 79 57 inlet;
#X obj 79 195 outlet;
#X obj 78 84 mass2D \$0-mass1 1 100 20 0 1000 0 200;
#X obj 97 157 s M6;
#X msg 99 109 pos \$1 \$2;
#X connect 0 0 2 0;
#X connect 2 0 4 0;
#X connect 2 0 1 0;
#X connect 4 0 3 0;
#X restore 640 109 pd mass6;
#N canvas 50 82 482 332 mass8 0;
#X obj 79 57 inlet;
#X obj 79 195 outlet;
#X obj 79 84 mass2D \$0-mass1 1 80 10 0 1000 0 200;
#X obj 95 156 s M8;
#X msg 94 113 pos \$1 \$2;
#X connect 0 0 2 0;
#X connect 2 0 4 0;
#X connect 2 0 1 0;
#X connect 4 0 3 0;
#X restore 767 36 pd mass8;
#N canvas 50 82 484 334 mass9 0;
#X obj 79 57 inlet;
#X obj 79 195 outlet;
#X obj 78 84 mass2D \$0-mass1 1 80 50 0 1000 0 200;
#X obj 97 150 s M9;
#X msg 96 114 pos \$1 \$2;
#X connect 0 0 2 0;
#X connect 2 0 4 0;
#X connect 2 0 1 0;
#X connect 4 0 3 0;
#X restore 722 335 pd mass9;
#N canvas 50 82 484 334 mass11 0;
#X obj 79 57 inlet;
#X obj 79 195 outlet;
#X obj 78 84 mass2D \$0-mass1 1 120 30 0 1000 0 200;
#X obj 106 156 s M11;
#X msg 103 112 pos \$1 \$2;
#X connect 0 0 2 0;
#X connect 2 0 4 0;
#X connect 2 0 1 0;
#X connect 4 0 3 0;
#X restore 490 216 pd mass11;
#N canvas 50 82 484 334 mass12 0;
#X obj 79 57 inlet;
#X obj 79 195 outlet;
#X obj 78 84 mass2D \$0-mass1 1 80 30 0 1000 0 200;
#X obj 104 154 s M12;
#X msg 102 111 pos \$1 \$2;
#X connect 0 0 2 0;
#X connect 2 0 4 0;
#X connect 2 0 1 0;
#X connect 4 0 3 0;
#X restore 821 226 pd mass12;
#X obj 497 -9 r G;
#X msg 499 9 force2D 0 0.1;
#X msg 132 7 force2D 0 0.3;
#N canvas 50 82 488 338 mass1 0;
#X obj 79 57 inlet;
#X obj 79 195 outlet;
#X obj 79 84 mass2D \$0-mass1 1 170 50 0 1000 0 200;
#X obj 103 145 s M16;
#X msg 103 113 pos \$1 \$2;
#X connect 0 0 2 0;
#X connect 2 0 4 0;
#X connect 2 0 1 0;
#X connect 4 0 3 0;
#X restore 18 610 pd mass1;
#N canvas 50 82 476 326 mass3 0;
#X obj 79 57 inlet;
#X obj 79 195 outlet;
#X obj 79 84 mass2D \$0-mass1 1 170 30 0 1000 0 200;
#X obj 105 145 s M15;
#X msg 104 113 pos \$1 \$2;
#X connect 0 0 2 0;
#X connect 2 0 4 0;
#X connect 2 0 1 0;
#X connect 4 0 3 0;
#X restore 27 500 pd mass3;
#N canvas 50 82 482 332 mass5 0;
#X obj 79 57 inlet;
#X obj 79 195 outlet;
#X obj 78 84 mass2D \$0-mass1 1 170 10 0 1000 0 200;
#X obj 104 149 s M14;
#X msg 100 113 pos \$1 \$2;
#X connect 0 0 2 0;
#X connect 2 0 4 0;
#X connect 2 0 1 0;
#X connect 4 0 3 0;
#X restore 30 415 pd mass5;
#N canvas 50 82 480 330 mass7 0;
#X obj 79 57 inlet;
#X obj 79 195 outlet;
#X obj 79 84 mass2D \$0-mass1 1 190 10 0 1000 0 200;
#X msg 100 113 pos \$1 \$2;
#X obj 100 156 s M13;
#X connect 0 0 2 0;
#X connect 2 0 3 0;
#X connect 2 0 1 0;
#X connect 3 0 4 0;
#X restore 363 409 pd mass7;
#X obj 46 316 r G;
#X msg 46 342 force2D 0 0.3;
#N canvas 50 82 500 350 mass1 0;
#X obj 79 57 inlet;
#X obj 79 195 outlet;
#X obj 79 83 mass2D \$0-mass1 1 260 10 0 1000 0 200;
#X obj 99 159 s M20;
#X msg 98 115 pos \$1 \$2;
#X connect 0 0 2 0;
#X connect 2 0 4 0;
#X connect 2 0 1 0;
#X connect 4 0 3 0;
#X restore 533 628 pd mass1;
#N canvas 50 82 482 332 mass3 0;
#X obj 79 57 inlet;
#X obj 79 195 outlet;
#X obj 79 84 mass2D \$0-mass1 1 260 30 0 1000 0 200;
#X obj 96 142 s M17;
#X msg 96 113 pos \$1 \$2;
#X connect 0 0 2 0;
#X connect 2 0 4 0;
#X connect 2 0 1 0;
#X connect 4 0 3 0;
#X restore 542 518 pd mass3;
#N canvas 50 82 484 334 mass5 0;
#X obj 79 57 inlet;
#X obj 79 195 outlet;
#X obj 78 84 mass2D \$0-mass1 1 260 50 0 1000 0 200;
#X obj 107 150 s M18;
#X msg 95 113 pos \$1 \$2;
#X connect 0 0 2 0;
#X connect 2 0 4 0;
#X connect 2 0 1 0;
#X connect 4 0 3 0;
#X restore 545 433 pd mass5;
#N canvas 215 196 484 334 mass7 0;
#X obj 79 57 inlet;
#X obj 79 195 outlet;
#X obj 79 84 mass2D \$0-mass1 1 240 50 0 1000 0 200;
#X obj 97 136 s M19;
#X msg 97 110 pos \$1 \$2;
#X connect 0 0 2 0;
#X connect 2 0 4 0;
#X connect 2 0 1 0;
#X connect 4 0 3 0;
#X restore 856 420 pd mass7;
#X obj 561 376 r G;
#X msg 561 402 force2D 0 0.3;
#N canvas 50 82 476 326 mass8 0;
#X obj 79 57 inlet;
#X obj 79 195 outlet;
#X obj 79 84 mass2D \$0-mass1 1 30 30 0 1000 0 200;
#X obj 102 162 s M28;
#X msg 103 110 pos \$1 \$2;
#X connect 0 0 2 0;
#X connect 2 0 4 0;
#X connect 2 0 1 0;
#X connect 4 0 3 0;
#X restore 347 153 pd mass8;
#N canvas 50 82 484 334 mass7 0;
#X obj 79 57 inlet;
#X obj 79 195 outlet;
#X obj 79 86 mass2D \$0-mass1 1 190 30 0 1000 0 200;
#X msg 96 113 pos \$1 \$2;
#X obj 102 155 s M29;
#X connect 0 0 2 0;
#X connect 2 0 3 0;
#X connect 2 0 1 0;
#X connect 3 0 4 0;
#X restore 341 492 pd mass7;
#N canvas 215 196 486 336 mass7 0;
#X obj 79 57 inlet;
#X obj 79 195 outlet;
#X obj 79 84 mass2D \$0-mass1 1 240 30 0 1000 0 200;
#X msg 105 113 pos \$1 \$2;
#X obj 104 141 s M30;
#X connect 0 0 2 0;
#X connect 2 0 1 0;
#X connect 2 0 3 0;
#X connect 3 0 4 0;
#X restore 840 522 pd mass7;
#X obj 139 47 link2D \$0-link1 10 0.8;
#X obj 143 73 link2D \$0-link1 14 0.6;
#X obj 146 126 link2D \$0-link1 14 0.6;
#X obj 160 154 link2D \$0-link1 10 0.8;
#X obj 163 213 link2D \$0-link1 12 0.8;
#X obj 20 180 link2D \$0-link1 10 0.8 0 0.1;
#X obj 17 215 link2D \$0-link1 10 0.8;
#X obj 18 96 link2D \$0-link1 10 0.8 0 0.1;
#X obj 251 101 link2D \$0-link1 10 0.8 0 0.1;
#X obj 592 45 link2D \$0-link1 12 0.3;
#X obj 669 75 link2D \$0-link1 12 0.5 0.1;
#X obj 485 74 link2D \$0-link1 12 0.5 0.1;
#X obj 737 108 link2D \$0-link1 12 0.3 0.1;
#X obj 469 131 link2D \$0-link1 12 0.3 0.1;
#X obj 509 157 link2D \$0-link1 12 0.3;
#X obj 531 185 link2D \$0-link1 12 0.3;
#X obj 665 154 link2D \$0-link1 12 0.3;
#X obj 676 190 link2D \$0-link1 12 0.3;
#X obj 634 214 link2D \$0-link1 12 0.3;
#X obj 665 237 link2D \$0-link1 12 0.5;
#X obj 494 242 link2D \$0-link1 12 0.5;
#X obj 486 266 link2D \$0-link1 12 0.3 0.1;
#X obj 691 281 link2D \$0-link1 12 0.3 0.1;
#X obj 570 315 link2D \$0-link1 12 0.3;
#X obj 148 410 link2D \$0-link1 10 0.8;
#X obj 144 433 link2D \$0-link1 14 0.6;
#X obj 251 453 link2D \$0-link1 10 0.8 0 0.1;
#X obj 29 458 link2D \$0-link1 10 0.8 0 0.1;
#X obj 144 480 link2D \$0-link1 14 0.6;
#X obj 141 502 link2D \$0-link1 10 0.8;
#X obj 24 537 link2D \$0-link1 10 0.8 0 0.1;
#X obj 21 572 link2D \$0-link1 10 0.8;
#X obj 160 568 link2D \$0-link1 12 0.8;
#X obj 544 476 link2D \$0-link1 10 0.8 0 0.1;
#X obj 539 555 link2D \$0-link1 10 0.8 0 0.1;
#X obj 536 590 link2D \$0-link1 10 0.8;
#X obj 707 590 link2D \$0-link1 12 0.8;
#X obj 678 519 link2D \$0-link1 10 0.8;
#X obj 683 493 link2D \$0-link1 14 0.6;
#X obj 740 471 link2D \$0-link1 10 0.8 0 0.1;
#X obj 689 451 link2D \$0-link1 14 0.6;
#X obj 690 430 link2D \$0-link1 10 0.8;
#X connect 0 0 34 0;
#X connect 0 0 35 1;
#X connect 0 0 36 1;
#X connect 1 0 31 0;
#X connect 1 0 33 0;
#X connect 1 0 35 0;
#X connect 1 0 37 1;
#X connect 2 0 30 0;
#X connect 2 0 32 0;
#X connect 2 0 36 0;
#X connect 2 0 37 0;
#X connect 3 0 30 1;
#X connect 3 0 31 1;
#X connect 3 0 34 1;
#X connect 3 0 38 0;
#X connect 4 0 14 0;
#X connect 5 0 44 0;
#X connect 5 0 50 0;
#X connect 5 0 51 1;
#X connect 5 0 53 0;
#X connect 6 0 39 0;
#X connect 6 0 41 0;
#X connect 6 0 43 1;
#X connect 6 0 46 0;
#X connect 6 0 47 0;
#X connect 7 0 40 0;
#X connect 7 0 41 1;
#X connect 7 0 49 0;
#X connect 7 0 50 1;
#X connect 8 0 39 1;
#X connect 8 0 40 1;
#X connect 8 0 42 1;
#X connect 8 0 44 1;
#X connect 8 0 45 1;
#X connect 9 0 46 1;
#X connect 9 0 49 1;
#X connect 9 0 52 0;
#X connect 9 0 53 1;
#X connect 10 0 43 0;
#X connect 10 0 45 0;
#X connect 10 0 48 0;
#X connect 10 0 51 0;
#X connect 11 0 42 0;
#X connect 11 0 47 1;
#X connect 11 0 48 1;
#X connect 11 0 52 1;
#X connect 12 0 13 0;
#X connect 13 0 10 0;
#X connect 13 0 6 0;
#X connect 13 0 8 0;
#X connect 13 0 5 0;
#X connect 13 0 9 0;
#X connect 13 0 7 0;
#X connect 13 0 11 0;
#X connect 14 0 2 0;
#X connect 14 0 1 0;
#X connect 14 0 0 0;
#X connect 14 0 3 0;
#X connect 14 0 27 0;
#X connect 15 0 60 1;
#X connect 15 0 61 1;
#X connect 15 0 62 0;
#X connect 16 0 55 0;
#X connect 16 0 57 1;
#X connect 16 0 59 0;
#X connect 16 0 60 0;
#X connect 17 0 54 0;
#X connect 17 0 57 0;
#X connect 17 0 58 0;
#X connect 17 0 61 0;
#X connect 18 0 54 1;
#X connect 18 0 55 1;
#X connect 18 0 56 0;
#X connect 18 0 62 1;
#X connect 19 0 20 0;
#X connect 20 0 17 0;
#X connect 20 0 16 0;
#X connect 20 0 15 0;
#X connect 20 0 18 0;
#X connect 20 0 28 0;
#X connect 21 0 64 1;
#X connect 21 0 65 1;
#X connect 21 0 66 0;
#X connect 22 0 63 1;
#X connect 22 0 64 0;
#X connect 22 0 67 0;
#X connect 22 0 70 0;
#X connect 23 0 63 0;
#X connect 23 0 65 0;
#X connect 23 0 68 0;
#X connect 23 0 71 0;
#X connect 24 0 66 1;
#X connect 24 0 69 0;
#X connect 24 0 70 1;
#X connect 24 0 71 1;
#X connect 25 0 26 0;
#X connect 26 0 23 0;
#X connect 26 0 22 0;
#X connect 26 0 21 0;
#X connect 26 0 24 0;
#X connect 26 0 29 0;
#X connect 27 0 32 1;
#X connect 27 0 33 1;
#X connect 27 0 38 1;
#X connect 28 0 56 1;
#X connect 28 0 58 1;
#X connect 28 0 59 1;
#X connect 29 0 67 1;
#X connect 29 0 68 1;
#X connect 29 0 69 1;
#X connect 30 0 2 0;
#X connect 30 1 3 0;
#X connect 31 0 1 0;
#X connect 31 1 3 0;
#X connect 32 0 2 0;
#X connect 32 1 27 0;
#X connect 33 0 1 0;
#X connect 33 1 27 0;
#X connect 34 0 0 0;
#X connect 34 1 3 0;
#X connect 35 0 1 0;
#X connect 35 1 0 0;
#X connect 36 0 2 0;
#X connect 36 1 0 0;
#X connect 37 0 2 0;
#X connect 37 1 1 0;
#X connect 38 0 3 0;
#X connect 38 1 27 0;
#X connect 39 0 6 0;
#X connect 39 1 8 0;
#X connect 40 0 7 0;
#X connect 40 1 8 0;
#X connect 41 0 6 0;
#X connect 41 1 7 0;
#X connect 42 0 11 0;
#X connect 42 1 8 0;
#X connect 43 0 10 0;
#X connect 43 1 6 0;
#X connect 44 0 5 0;
#X connect 44 1 8 0;
#X connect 45 0 10 0;
#X connect 45 1 8 0;
#X connect 46 0 6 0;
#X connect 46 1 9 0;
#X connect 47 0 6 0;
#X connect 47 1 11 0;
#X connect 48 0 10 0;
#X connect 48 1 11 0;
#X connect 49 0 7 0;
#X connect 49 1 9 0;
#X connect 50 0 5 0;
#X connect 50 1 7 0;
#X connect 51 0 10 0;
#X connect 51 1 5 0;
#X connect 52 0 9 0;
#X connect 52 1 11 0;
#X connect 53 0 5 0;
#X connect 53 1 9 0;
#X connect 54 0 17 0;
#X connect 54 1 18 0;
#X connect 55 0 16 0;
#X connect 55 1 18 0;
#X connect 56 0 18 0;
#X connect 56 1 28 0;
#X connect 57 0 17 0;
#X connect 57 1 16 0;
#X connect 58 0 17 0;
#X connect 58 1 28 0;
#X connect 59 0 16 0;
#X connect 59 1 28 0;
#X connect 60 0 16 0;
#X connect 60 1 15 0;
#X connect 61 0 17 0;
#X connect 61 1 15 0;
#X connect 62 0 15 0;
#X connect 62 1 18 0;
#X connect 63 0 23 0;
#X connect 63 1 22 0;
#X connect 64 0 22 0;
#X connect 64 1 21 0;
#X connect 65 0 23 0;
#X connect 65 1 21 0;
#X connect 66 0 21 0;
#X connect 66 1 24 0;
#X connect 67 0 22 0;
#X connect 67 1 29 0;
#X connect 68 0 23 0;
#X connect 68 1 29 0;
#X connect 69 0 24 0;
#X connect 69 1 29 0;
#X connect 70 0 22 0;
#X connect 70 1 24 0;
#X connect 71 0 23 0;
#X connect 71 1 24 0;
#X restore 121 193 pd structure;
#X msg 118 157 resetL \, resetF;
#X obj 7 112 t b b;
#X obj 42 135 s G;
#X obj 118 110 t b b;
#X obj 116 66 inlet;
#X obj 62 24 loadbang;
#X obj 30 66 delay 3000;
#X obj 32 168 s \$0-link1;
#X obj 7 196 s \$0-mass1;
#X connect 0 0 12 0;
#X connect 1 0 2 0;
#X connect 2 0 5 0;
#X connect 4 0 11 0;
#X connect 5 0 12 0;
#X connect 5 1 6 0;
#X connect 5 1 11 0;
#X connect 7 0 4 0;
#X connect 7 1 0 0;
#X connect 8 0 7 0;
#X connect 9 0 7 0;
#X connect 9 0 10 0;
#X connect 10 0 2 0;
#X restore 9 597 pd pmpd;
#X obj 9 575 bng 15 250 50 0 empty empty empty 0 -6 0 8 #fcfcfc #000000 #000000;
#X obj 1 216 cnv 10 500 10 empty empty empty 20 12 0 14 #606060 #404040 0;
#X obj 53 187 cnv 15 15 15 Ma7 M7 empty 2 10 0 14 #000000 #404040 0;
#X obj 38 200 cnv 15 15 15 empty M28 empty 2 10 0 14 #000000 #404040 0;
#X obj 155 200 cnv 15 15 15 Ma16 M16 empty 2 10 0 14 #000000 #404040 0;
#X text 66 263 Physical modeling for pure data using a collection of physical ojects.;
#X text 95 409 Look at mass and link help file :;
#N canvas 255 121 879 595 simple_example 0;
#X obj 356 237 vsl 15 128 0 127 0 0 empty empty empty 0 -8 0 8 #fcfcfc #000000 #000000 0 0;
#X obj 169 109 hradio 15 1 0 5 empty empty empty 0 -6 0 8 #fcfcfc #000000 #000000 0;
#N canvas 477 50 445 299 preset 0;
#X msg 36 193 setK 0.05 \, setD 0 \, setD2 30;
#X msg 55 166 setK 1 \, setD 0 \, setD2 30;
#X msg 75 138 setK 1 \, setD 0 \, setD2 200;
#X obj 36 16 inlet;
#X obj 115 254 outlet;
#X msg 95 108 setK 300 \, setD 300 \, setD2 5;
#X obj 36 43 sel 2 1 0 3 4;
#X msg 115 78 setK 3000 \, setD 1000 \, setD2 5000;
#X connect 0 0 4 0;
#X connect 1 0 4 0;
#X connect 2 0 4 0;
#X connect 3 0 6 0;
#X connect 5 0 4 0;
#X connect 6 0 0 0;
#X connect 6 1 1 0;
#X connect 6 2 2 0;
#X connect 6 3 5 0;
#X connect 6 4 7 0;
#X connect 7 0 4 0;
#X restore 169 130 pd preset;
#X obj 336 237 vsl 15 128 0 127 0 0 empty empty empty 0 -8 0 8 #fcfcfc #000000 #000000 0 0;
#N canvas 50 110 268 186 stuff 0;
#X obj 13 20 loadbang;
#X obj 48 97 s \$0-link;
#X obj 13 72 t b b;
#X obj 13 123 s \$0-mass;
#X obj 13 45 metro 5;
#X obj 89 20 bng 15 250 50 0 empty empty empty 0 -6 0 8 #fcfcfc #000000 #000000;
#X msg 124 92 reset;
#X msg 89 66 resetL \, resetF;
#X obj 89 40 t b b;
#X connect 0 0 4 0;
#X connect 2 0 3 0;
#X connect 2 1 1 0;
#X connect 4 0 2 0;
#X connect 5 0 8 0;
#X connect 6 0 3 0;
#X connect 7 0 1 0;
#X connect 8 0 7 0;
#X connect 8 1 6 0;
#X restore 75 65 pd stuff;
#X text 98 346 click or move the slider ->;
#X obj 169 167 link \$0-link 0 1 0 200;
#X obj 356 167 mass \$0-mass 10000 0;
#X text 268 106 <- different behaviors of the link;
#X text 396 346 look at the movement of the mass (the right slider);
#X text 80 415 The mass is linked to the slider with differents kind of link (see the preset);
#X text 80 461 Such a system can be useful for substituting the line object of pd when a more natural movement is required.;
#X text 71 18 Behavior of a single mass linked to a fixed point with a viscoelastic link.;
#X connect 1 0 2 0;
#X connect 2 0 6 0;
#X connect 3 0 6 0;
#X connect 6 1 7 0;
#X connect 7 0 0 0;
#X connect 7 0 6 1;
#X restore 71 521 pd simple_example;
#X connect 27 0 26 0;
