#N canvas 44 239 877 678 12;
#X declare -lib Gem -path pmpd;
#X obj 9 68 t b b;
#X obj 9 20 tgl 15 0 empty empty empty 0 -6 0 8 -262144 -1 -1 0 1;
#X obj 158 44 bng 15 250 50 0 empty empty empty 0 -6 0 8 -262144 -1
-1;
#X msg 238 96 0 \, destroy;
#X msg 204 71 reset \, create \, 1;
#N canvas 623 135 504 293 init 0;
#X obj 49 50 loadbang;
#X msg 44 84 Xmin -3.8;
#X msg 58 110 Xmax 3.8;
#X msg 81 131 Ymin -3.8;
#X msg 95 157 Ymax 3.8;
#X obj 47 201 s \$0-mass;
#X connect 0 0 1 0;
#X connect 0 0 2 0;
#X connect 0 0 3 0;
#X connect 0 0 4 0;
#X connect 1 0 5 0;
#X connect 2 0 5 0;
#X connect 3 0 5 0;
#X connect 4 0 5 0;
#X restore 401 42 pd init;
#X obj 88 39 loadbang;
#X msg 139 95 reset;
#X msg 113 119 resetL;
#X msg 88 143 resetF;
#X obj 88 68 t b b b;
#X obj 9 41 metro 50;
#X obj 204 124 gemwin;
#X text 90 202 negative Y force (gravity);
#X text 86 316 positive Y force;
#X obj 23 548 gemhead;
#X obj 43 574 unpack s f f;
#X obj 42 601 translateXYZ 0 0 0;
#X obj 42 633 sphere 0.3;
#X obj 173 548 gemhead;
#X obj 193 574 unpack s f f;
#X obj 192 601 translateXYZ 0 0 0;
#X obj 192 633 sphere 0.3;
#X obj 330 549 gemhead;
#X obj 350 575 unpack s f f;
#X obj 349 602 translateXYZ 0 0 0;
#X obj 349 634 sphere 0.3;
#X obj 479 549 gemhead;
#X obj 499 575 unpack s f f;
#X obj 498 602 translateXYZ 0 0 0;
#X obj 498 634 sphere 0.3;
#X obj 628 549 gemhead;
#X obj 648 575 unpack s f f;
#X obj 647 602 translateXYZ 0 0 0;
#X obj 647 634 sphere 0.3;
#X obj 44 515 mass2D foo 1 -2 3;
#X obj 193 515 mass2D foo2 1 -1 3;
#X obj 350 515 mass2D foo3 1 0 3;
#X obj 499 515 mass2D foo4 1 1 3;
#X obj 648 515 mass2D foo 1 2 3;
#X obj 9 173 s mass;
#X obj 55 487 r mass;
#X obj 193 488 r mass;
#X obj 350 486 r mass;
#X obj 499 486 r mass;
#X obj 648 487 r mass;
#X obj 52 224 iAmbient2D foo 0 -0.1;
#X obj 63 251 iAmbient2D foo2 0 -0.1;
#X obj 76 277 iAmbient2D foo3 0 -0.1;
#X text 268 223 force is apply to mass named foo \, foo2 and foo3;
#X text 344 337 a positive forece is apply to foo2 \, and to foo3 (according
to pd link). this force allows mass 2 and 3 to stay at Y=0.;
#X obj 529 707 iAmbient2D;
#X obj 530 734 iLine2D;
#X obj 530 760 iSeg2D;
#X obj 530 787 iCircle2D;
#X msg 17 456 reset;
#X obj 17 429 sel 1;
#X obj 17 401 tSquare2D -4 4 -10000 -4;
#X text 260 395 tSquare is a test : test if the position of the mass
is in a specific square. This test is used to reset the mass to it's
initial state if the mass go out of the screen.;
#X obj 44 342 iSeg2D foo2 -3 0 3 0 3 0 0 0.5 1;
#X text 398 16 This patch explain how interactors works;
#X text 283 245 but not to foo4 \, so it will not move.;
#X text 201 40 <- reset;
#X text 348 100 interactor are design to be a kind of link beetween
masss and a simple object.;
#X text 347 135 interactors can be a link to all mass with the same
name. It's easier to patch than putting a link object for all link.
;
#X text 41 705 for more informations about interactors or test \, see
the help file :;
#X obj 623 733 tLine2D;
#X obj 623 759 tSeg2D;
#X obj 623 786 tCircle2D;
#X obj 622 706 tSquare2D;
#X text 356 70 <- 1 GEM window;
#X text 34 13 <- 2 begin simulation;
#X obj 466 42 declare -lib Gem -path pmpd;
#X connect 0 0 40 0;
#X connect 0 1 46 0;
#X connect 0 1 47 0;
#X connect 0 1 48 0;
#X connect 0 1 59 0;
#X connect 1 0 11 0;
#X connect 2 0 10 0;
#X connect 3 0 12 0;
#X connect 4 0 12 0;
#X connect 6 0 10 0;
#X connect 7 0 40 0;
#X connect 10 0 9 0;
#X connect 10 1 8 0;
#X connect 10 2 7 0;
#X connect 11 0 0 0;
#X connect 15 0 17 0;
#X connect 16 1 17 1;
#X connect 16 2 17 2;
#X connect 17 0 18 0;
#X connect 19 0 21 0;
#X connect 20 1 21 1;
#X connect 20 2 21 2;
#X connect 21 0 22 0;
#X connect 23 0 25 0;
#X connect 24 1 25 1;
#X connect 24 2 25 2;
#X connect 25 0 26 0;
#X connect 27 0 29 0;
#X connect 28 1 29 1;
#X connect 28 2 29 2;
#X connect 29 0 30 0;
#X connect 31 0 33 0;
#X connect 32 1 33 1;
#X connect 32 2 33 2;
#X connect 33 0 34 0;
#X connect 35 0 16 0;
#X connect 35 0 57 0;
#X connect 36 0 20 0;
#X connect 37 0 24 0;
#X connect 38 0 28 0;
#X connect 39 0 32 0;
#X connect 41 0 35 0;
#X connect 42 0 36 0;
#X connect 43 0 37 0;
#X connect 44 0 38 0;
#X connect 45 0 39 0;
#X connect 55 0 35 0;
#X connect 56 0 55 0;
#X connect 57 0 56 0;
#X connect 59 0 37 0;
