#N canvas 516 273 627 556 10;
#X declare -lib Gem -path pmpd;
#X obj 22 200 t b b;
#X obj 22 134 tgl 15 0 empty empty empty 0 -6 0 8 #fcfcfc #000000 #000000 0 1;
#X obj 116 152 loadbang;
#X msg 179 224 0 \, destroy;
#X obj 22 238 s mass;
#X obj 116 200 s mass;
#X obj 84 327 s link;
#X text 43 132 <- begin (change metro speed for slow computer);
#X msg 533 406 30;
#X obj 533 385 loadbang;
#X obj 472 356 translateXYZ 0 -2 0;
#X obj 472 431 sphere 1.95;
#X floatatom 65 150 5 0 0 0 - - - 0;
#X obj 48 428 gemhead;
#X obj 48 452 color 1 0 0;
#X obj 472 271 gemhead 55;
#X obj 472 329 color 1 1 1 0.7;
#X obj 48 499 rotateXYZ 90 0 0;
#X obj 48 523 square 6;
#X obj 48 476 translateXYZ 0 -3.05 0;
#X obj 267 464 gemhead 1;
#X obj 267 489 rotateXYZ -80 0 0;
#X obj 267 517 world_light;
#X text 210 175 <- reset the simulation;
#X obj 46 374 iSphere3D mass 0 -2 0 0 2 0 0.1 0 0.1;
#X obj 66 351 iAmbient3D mass 0 -0.001 0 1e-06 1e-07 1e-06 O.OOO1;
#X msg 116 176 reset \, setT 1;
#X obj 189 255 hsl 128 15 0 127 0 0 empty empty empty -2 -6 0 8 #fcfcfc #000000 #000000 0 1;
#X obj 205 279 hsl 128 15 0 127 0 0 empty empty empty -2 -6 0 8 #fcfcfc #000000 #000000 0 1;
#X obj 222 302 hsl 128 15 0 127 0 0 empty empty empty -2 -6 0 8 #fcfcfc #000000 #000000 0 1;
#X text 77 62 click on the gem windows to rotate the view point (middle clik to set the distance to the object). You can also change the position of the camera with slider if mouse does not work;
#X text 268 237 camera position;
#X text 79 30 Masses don't interact each other. They interact with the sphere \, and the gravity field.;
#X text 513 199 <- 1;
#X obj 10 2 declare -lib Gem -path pmpd;
#X obj 22 173 metro 10;
#X text 205 1 small particules on an elipse.;
#X obj 452 494 clone rain 1000;
#X msg 170 200 reset \, view -3 3 6 0 0 0 0 4 0 \, lighting 1 \, create \, 1;
#X obj 170 324 ch_gemwin 20;
#X connect 0 0 4 0;
#X connect 0 1 6 0;
#X connect 0 1 25 0;
#X connect 0 1 24 0;
#X connect 1 0 35 0;
#X connect 2 0 26 0;
#X connect 3 0 39 0;
#X connect 8 0 11 2;
#X connect 9 0 8 0;
#X connect 10 0 11 0;
#X connect 12 0 35 1;
#X connect 13 0 14 0;
#X connect 14 0 19 0;
#X connect 15 0 16 0;
#X connect 16 0 10 0;
#X connect 17 0 18 0;
#X connect 19 0 17 0;
#X connect 20 0 21 0;
#X connect 21 0 22 0;
#X connect 26 0 5 0;
#X connect 27 0 39 1;
#X connect 28 0 39 2;
#X connect 29 0 39 3;
#X connect 35 0 0 0;
#X connect 38 0 39 0;
