#N canvas 421 245 487 445 10;
#X declare -path pmpd;
#X floatatom 32 62 0 0 0 0 - - - 0;
#N canvas 0 0 454 304 cpu 0;
#X obj 61 159 cputime;
#X obj 61 19 loadbang;
#X obj 61 103 metro 1000;
#X msg 61 47 1;
#X floatatom 61 75 0 0 0 0 - - - 0;
#X obj 61 131 t b b;
#X obj 61 219 * 0.1;
#X obj 61 188 int;
#X text 106 75 <-- on/off;
#X obj 61 246 outlet;
#X connect 0 0 7 0;
#X connect 1 0 3 0;
#X connect 2 0 5 0;
#X connect 3 0 4 0;
#X connect 4 0 2 0;
#X connect 5 0 0 0;
#X connect 5 1 0 1;
#X connect 6 0 9 0;
#X connect 7 0 6 0;
#X restore 32 36 pd cpu;
#X obj 89 269 tabwrite~ array99;
#X msg 80 64 \; pd dsp 1 \;;
#X obj 80 36 loadbang;
#X obj 26 271 dac~;
#X obj 27 221 hip~ 20;
#N canvas 0 0 450 300 (subpatch) 0;
#X array array99 3000 float 0;
#X coords 0 1 2999 -1 150 100 1;
#X restore 49 307 graph;
#N canvas 13 577 531 530 corde 0;
#X obj 86 32 t b b b b;
#X obj 92 4 inlet;
#X obj 155 479 outlet;
#X obj 82 347 pack f f;
#X obj 93 277 t f f;
#X obj 118 300 + 1;
#X text 294 75 number of masss on the string;
#X obj 158 290 + 1;
#X obj 104 112 + 1;
#X obj 137 127 20;
#X obj 86 136 21;
#X obj 119 321 % 21;
#X msg 261 78 50;
#X msg 149 181 mass 20 1;
#X msg 83 367 link \$1 \$2 0.1 0.03;
#X msg 218 430 inForce 0 3 1;
#X msg 220 402 outPos 0 7 1;
#X obj 138 156 until;
#X obj 83 160 t f b;
#X msg 108 180 0;
#X obj 82 207 until;
#X obj 80 233 f;
#X obj 108 233 + 1;
#X msg 143 71 reset \, mass 0;
#X connect 0 0 16 0;
#X connect 0 0 15 0;
#X connect 0 1 10 0;
#X connect 0 2 9 0;
#X connect 0 3 23 0;
#X connect 1 0 0 0;
#X connect 3 0 14 0;
#X connect 4 0 3 0;
#X connect 4 1 5 0;
#X connect 5 0 11 0;
#X connect 7 0 11 1;
#X connect 8 0 10 1;
#X connect 9 0 17 0;
#X connect 10 0 18 0;
#X connect 11 0 3 1;
#X connect 12 0 7 0;
#X connect 12 0 8 0;
#X connect 12 0 9 1;
#X connect 13 0 2 0;
#X connect 14 0 2 0;
#X connect 15 0 2 0;
#X connect 16 0 2 0;
#X connect 17 0 13 0;
#X connect 18 0 20 0;
#X connect 18 1 19 0;
#X connect 19 0 21 1;
#X connect 20 0 21 0;
#X connect 21 0 22 0;
#X connect 21 0 4 0;
#X connect 22 0 21 1;
#X connect 23 0 2 0;
#X restore 28 146 pd corde;
#X obj 28 124 bng 15 250 50 0 empty empty empty 0 -6 0 8 #fcfcfc #000000 #000000;
#X obj 89 243 metro 100;
#X obj 89 217 tgl 15 0 empty empty empty 0 -6 0 8 #fcfcfc #000000 #000000 0 1;
#X obj 115 220 loadbang;
#X obj 28 172 pmpd~ 1 1;
#X obj 45 124 loadbang;
#X obj 111 147 line~;
#X msg 111 121 0.05 \, 0 1;
#X obj 28 196 *~ 0.7;
#X text 190 120 <- send a force to a point of the string;
#X obj 206 44 declare -path pmpd;
#X connect 1 0 0 0;
#X connect 4 0 3 0;
#X connect 6 0 2 0;
#X connect 6 0 5 0;
#X connect 6 0 5 1;
#X connect 8 0 13 0;
#X connect 9 0 8 0;
#X connect 10 0 2 0;
#X connect 11 0 10 0;
#X connect 12 0 10 0;
#X connect 13 0 17 0;
#X connect 14 0 8 0;
#X connect 15 0 13 0;
#X connect 16 0 15 0;
#X connect 17 0 6 0;
