#N canvas 862 72 686 162 10;
#X declare -lib Gem -path pmpd;
#X obj 22 16 bng 15 250 50 0 empty empty empty 0 -6 0 8 #fcfcfc #000000 #000000;
#N canvas 596 150 954 737 synthese 0;
#X msg 125 304 \$1 50;
#X obj 125 326 line~;
#X obj 85 330 *~;
#X msg 220 304 \$1 50;
#X obj 220 326 line~;
#X obj 180 330 *~;
#X msg 313 306 \$1 50;
#X obj 313 328 line~;
#X obj 273 332 *~;
#X msg 405 304 \$1 50;
#X obj 405 326 line~;
#X obj 365 330 *~;
#X obj 222 378 dac~;
#X msg 506 307 \$1 50;
#X obj 506 329 line~;
#X obj 466 333 *~;
#X msg 601 307 \$1 50;
#X obj 601 329 line~;
#X obj 561 333 *~;
#X msg 694 309 \$1 50;
#X obj 694 331 line~;
#X obj 654 335 *~;
#X msg 786 307 \$1 50;
#X obj 786 329 line~;
#X obj 746 333 *~;
#X obj 603 381 dac~;
#X obj 83 274 osc~ 55;
#X obj 179 274 osc~ 110;
#X obj 364 275 osc~ 222;
#X obj 147 208 unpack f f;
#X obj 336 214 unpack f f;
#X obj 522 211 unpack f f;
#X obj 713 218 unpack f f;
#X msg 115 508 \$1 50;
#X obj 115 530 line~;
#X obj 75 534 *~;
#X msg 210 508 \$1 50;
#X obj 210 530 line~;
#X obj 170 534 *~;
#X msg 303 510 \$1 50;
#X obj 303 532 line~;
#X obj 263 536 *~;
#X msg 395 508 \$1 50;
#X obj 395 530 line~;
#X obj 355 534 *~;
#X obj 212 582 dac~;
#X msg 496 511 \$1 50;
#X obj 496 533 line~;
#X obj 456 537 *~;
#X msg 591 511 \$1 50;
#X obj 591 533 line~;
#X obj 551 537 *~;
#X msg 684 513 \$1 50;
#X obj 684 535 line~;
#X obj 644 539 *~;
#X msg 776 511 \$1 50;
#X obj 776 533 line~;
#X obj 736 537 *~;
#X obj 593 585 dac~;
#X obj 643 483 osc~ 1113;
#X obj 735 481 osc~ 2229;
#X obj 145 423 unpack f f;
#X obj 326 418 unpack f f;
#X obj 512 415 unpack f f;
#X obj 703 422 unpack f f;
#X obj 272 276 osc~ 165;
#X obj 465 277 osc~ 267;
#X obj 560 277 osc~ 311;
#X obj 428 124 route 1 5 9 13 17 21 25 29;
#X obj 653 279 osc~ 366;
#X obj 745 277 osc~ 421;
#X obj 73 478 osc~ 444;
#X obj 169 478 osc~ 554;
#X obj 262 480 osc~ 664;
#X obj 354 478 osc~ 776;
#X obj 455 481 osc~ 888;
#X obj 550 481 osc~ 1000;
#X obj 85 448 / 20;
#X obj 212 454 / 20;
#X obj 304 456 / 20;
#X obj 400 454 / 50;
#X obj 467 451 / 50;
#X obj 594 457 / 50;
#X obj 684 459 / 100;
#X obj 781 457 / 100;
#X obj 791 253 / 100;
#X obj 692 256 / 100;
#X obj 604 254 / 50;
#X obj 477 247 / 50;
#X obj 410 250 / 50;
#X obj 313 252 / 20;
#X obj 221 251 / 20;
#X obj 96 244 / 20;
#X obj 428 57 r \$0-pmpdout;
#X obj 428 79 route massSpeed;
#X obj 428 101 route mob;
#X connect 0 0 1 0;
#X connect 1 0 2 1;
#X connect 2 0 12 0;
#X connect 3 0 4 0;
#X connect 4 0 5 1;
#X connect 5 0 12 0;
#X connect 5 0 12 1;
#X connect 6 0 7 0;
#X connect 7 0 8 1;
#X connect 8 0 12 0;
#X connect 8 0 12 1;
#X connect 9 0 10 0;
#X connect 10 0 11 1;
#X connect 11 0 12 1;
#X connect 13 0 14 0;
#X connect 14 0 15 1;
#X connect 15 0 25 0;
#X connect 16 0 17 0;
#X connect 17 0 18 1;
#X connect 18 0 25 0;
#X connect 18 0 25 1;
#X connect 19 0 20 0;
#X connect 20 0 21 1;
#X connect 21 0 25 0;
#X connect 21 0 25 1;
#X connect 22 0 23 0;
#X connect 23 0 24 1;
#X connect 24 0 25 1;
#X connect 26 0 2 0;
#X connect 27 0 5 0;
#X connect 28 0 11 0;
#X connect 29 0 92 0;
#X connect 29 1 91 0;
#X connect 30 0 90 0;
#X connect 30 1 89 0;
#X connect 31 0 88 0;
#X connect 31 1 87 0;
#X connect 32 0 86 0;
#X connect 32 1 85 0;
#X connect 33 0 34 0;
#X connect 34 0 35 1;
#X connect 35 0 45 0;
#X connect 36 0 37 0;
#X connect 37 0 38 1;
#X connect 38 0 45 0;
#X connect 38 0 45 1;
#X connect 39 0 40 0;
#X connect 40 0 41 1;
#X connect 41 0 45 0;
#X connect 41 0 45 1;
#X connect 42 0 43 0;
#X connect 43 0 44 1;
#X connect 44 0 45 1;
#X connect 46 0 47 0;
#X connect 47 0 48 1;
#X connect 48 0 58 0;
#X connect 49 0 50 0;
#X connect 50 0 51 1;
#X connect 51 0 58 0;
#X connect 51 0 58 1;
#X connect 52 0 53 0;
#X connect 53 0 54 1;
#X connect 54 0 58 0;
#X connect 54 0 58 1;
#X connect 55 0 56 0;
#X connect 56 0 57 1;
#X connect 57 0 58 1;
#X connect 59 0 54 0;
#X connect 60 0 57 0;
#X connect 61 0 77 0;
#X connect 61 1 78 0;
#X connect 62 0 79 0;
#X connect 62 1 80 0;
#X connect 63 0 81 0;
#X connect 63 1 82 0;
#X connect 64 0 83 0;
#X connect 64 1 84 0;
#X connect 65 0 8 0;
#X connect 66 0 15 0;
#X connect 67 0 18 0;
#X connect 68 0 29 0;
#X connect 68 1 30 0;
#X connect 68 2 31 0;
#X connect 68 3 32 0;
#X connect 68 4 61 0;
#X connect 68 5 62 0;
#X connect 68 6 63 0;
#X connect 68 7 64 0;
#X connect 69 0 21 0;
#X connect 70 0 24 0;
#X connect 71 0 35 0;
#X connect 72 0 38 0;
#X connect 73 0 41 0;
#X connect 74 0 44 0;
#X connect 75 0 48 0;
#X connect 76 0 51 0;
#X connect 77 0 33 0;
#X connect 78 0 36 0;
#X connect 79 0 39 0;
#X connect 80 0 42 0;
#X connect 81 0 46 0;
#X connect 82 0 49 0;
#X connect 83 0 52 0;
#X connect 84 0 55 0;
#X connect 85 0 22 0;
#X connect 86 0 19 0;
#X connect 87 0 16 0;
#X connect 88 0 13 0;
#X connect 89 0 9 0;
#X connect 90 0 6 0;
#X connect 91 0 3 0;
#X connect 92 0 0 0;
#X connect 93 0 94 0;
#X connect 94 0 95 0;
#X connect 95 0 68 0;
#X restore 23 107 pd synthese;
#X text 40 16 Reset;
#N canvas 0 22 450 300 structure_creation 0;
#X msg 195 86 reset;
#X obj 52 15 loadbang;
#X msg 156 145 Xmax 100 \, Xmin 0 \, Ymax 100 \, Ymin 0;
#X text 238 112 Random positions and masses;
#N canvas 557 309 487 357 masses 0;
#X msg 245 215 mass mob 1 \$1 \$2 \$3;
#X obj 417 165 random 100;
#X msg 417 145 seed 1;
#X obj 342 165 random 100;
#X obj 239 146 random 100;
#X msg 342 144 seed 2;
#X msg 239 126 seed 3;
#X obj 239 166 + 100;
#X obj 245 194 pack f f f;
#X obj 42 14 inlet;
#X obj 246 283 outlet;
#X obj 268 47 loadbang;
#X text 284 101 M;
#X text 356 106 X;
#X text 437 106 Y;
#X obj 223 68 t b b;
#X obj 42 45 until;
#X obj 42 78 f;
#X obj 72 78 + 1;
#X obj 72 100 mod 30;
#X obj 90 45 sel 0;
#X connect 0 0 10 0;
#X connect 1 0 8 2;
#X connect 2 0 1 0;
#X connect 3 0 8 1;
#X connect 4 0 7 0;
#X connect 5 0 3 0;
#X connect 6 0 4 0;
#X connect 7 0 8 0;
#X connect 8 0 0 0;
#X connect 9 0 16 0;
#X connect 11 0 6 0;
#X connect 11 0 5 0;
#X connect 11 0 2 0;
#X connect 15 0 4 0;
#X connect 15 1 3 0;
#X connect 15 1 1 0;
#X connect 16 0 17 0;
#X connect 17 0 18 0;
#X connect 17 0 15 0;
#X connect 18 0 19 0;
#X connect 19 0 17 1;
#X connect 19 0 20 0;
#X connect 20 0 16 1;
#X restore 175 113 pd masses;
#N canvas 0 22 450 300 links 0;
#X obj 136 72 t b;
#X obj 136 116 + 1;
#X obj 130 191 f;
#X obj 92 171 t f b;
#X obj 91 211 pack f f;
#X msg 91 233 link souple \$1 \$2 10 0.5;
#X obj 136 23 inlet;
#X obj 91 260 outlet;
#X obj 136 48 until;
#X obj 202 112 sel 0;
#X obj 184 154 mod 29;
#X obj 136 93 f 0;
#X connect 0 0 11 0;
#X connect 1 0 10 0;
#X connect 1 0 2 1;
#X connect 2 0 4 1;
#X connect 3 0 4 0;
#X connect 3 1 2 0;
#X connect 4 0 5 0;
#X connect 5 0 7 0;
#X connect 6 0 8 0;
#X connect 8 0 0 0;
#X connect 9 0 8 1;
#X connect 10 0 9 0;
#X connect 10 0 11 1;
#X connect 11 0 1 0;
#X connect 11 0 3 0;
#X restore 137 176 pd links;
#X obj 137 62 t b b b b;
#X obj 137 15 inlet;
#X obj 137 211 s \$0-pmpdin;
#X connect 0 0 8 0;
#X connect 1 0 6 0;
#X connect 2 0 8 0;
#X connect 4 0 8 0;
#X connect 5 0 8 0;
#X connect 6 0 5 0;
#X connect 6 1 2 0;
#X connect 6 2 4 0;
#X connect 6 3 0 0;
#X connect 7 0 6 0;
#X restore 22 39 pd structure_creation;
#N canvas -10 104 664 235 gem_stuff 0;
#X msg 77 139 0 \, destroy;
#X obj 58 160 gemwin;
#X obj 58 64 inlet;
#X obj 58 89 sel 1 0;
#X msg 58 116 reset \, create \, 1;
#X obj 214 65 gemhead;
#N canvas 311 224 413 534 gemmouse2 0;
#X obj 114 29 gemmouse;
#A saved init;
#X obj 96 266 outlet;
#X obj 114 83 - 0;
#X obj 165 97 + 100;
#X obj 114 60 / 5;
#X obj 165 74 / -5;
#X obj 32 81 t b;
#X obj 32 37 inlet;
#X obj 96 177 f;
#X obj 96 206 pack 0 0 0;
#X connect 0 0 4 0;
#X connect 0 1 5 0;
#X connect 0 2 9 2;
#X connect 2 0 8 1;
#X connect 3 0 9 1;
#X connect 4 0 2 0;
#X connect 5 0 3 0;
#X connect 6 0 8 0;
#X connect 7 0 6 0;
#X connect 8 0 9 0;
#X connect 9 0 1 0;
#X restore 214 87 pd gemmouse2;
#X msg 214 110 grabMass \$1 \$2 \$3;
#N canvas 643 123 617 602 massrender 0;
#X obj 127 22 inlet;
#X obj 62 267 translateXYZ;
#X obj 166 123 / 12.5;
#X obj 166 146 - 4;
#X obj 231 124 / 12.5;
#X obj 231 147 - 4;
#X obj 62 241 separator;
#X obj 127 57 unpack f f f;
#X msg 128 194 \$1;
#X obj 62 219 colorRGB 1 1 1;
#X obj 128 174 / 29;
#X obj 127 85 t b f;
#X obj 62 135 gemhead 45;
#X obj 62 63 loadbang;
#X msg 62 93 0;
#X obj 62 314 circle 0.1;
#X connect 0 0 7 0;
#X connect 1 0 15 0;
#X connect 2 0 3 0;
#X connect 3 0 1 1;
#X connect 4 0 5 0;
#X connect 5 0 1 2;
#X connect 6 0 1 0;
#X connect 7 0 11 0;
#X connect 7 1 2 0;
#X connect 7 2 4 0;
#X connect 8 0 9 2;
#X connect 8 0 9 3;
#X connect 9 0 6 0;
#X connect 10 0 8 0;
#X connect 11 0 12 0;
#X connect 11 1 10 0;
#X connect 12 0 9 0;
#X connect 13 0 14 0;
#X connect 14 0 12 0;
#X restore 460 154 pd massrender;
#N canvas 284 227 595 566 linkrender 0;
#X obj 261 87 inlet;
#X obj 261 179 / 12.5;
#X obj 261 202 - 4;
#X obj 315 180 / 12.5;
#X obj 315 203 - 4;
#X obj 189 288 separator;
#X obj 261 226 t b f;
#X obj 189 331 curve 2;
#X obj 375 183 / 12.5;
#X obj 375 206 - 4;
#X obj 429 184 / 12.5;
#X obj 429 207 - 4;
#X obj 291 256 pack f f;
#X msg 291 279 \$1 \$2 0;
#X obj 375 255 pack f f;
#X msg 375 278 \$1 \$2 0;
#X obj 261 131 unpack f f f f f;
#X obj 189 310 colorRGB 1 1 1;
#X obj 189 262 gemhead 45;
#X obj 189 180 loadbang;
#X msg 189 229 0;
#X connect 0 0 16 0;
#X connect 1 0 2 0;
#X connect 2 0 6 0;
#X connect 3 0 4 0;
#X connect 4 0 12 1;
#X connect 5 0 17 0;
#X connect 6 0 18 0;
#X connect 6 1 12 0;
#X connect 8 0 9 0;
#X connect 9 0 14 0;
#X connect 10 0 11 0;
#X connect 11 0 14 1;
#X connect 12 0 13 0;
#X connect 13 0 7 1;
#X connect 14 0 15 0;
#X connect 15 0 7 2;
#X connect 16 1 1 0;
#X connect 16 2 3 0;
#X connect 16 3 8 0;
#X connect 16 4 10 0;
#X connect 17 0 7 0;
#X connect 18 0 5 0;
#X connect 19 0 20 0;
#X connect 20 0 18 0;
#X restore 372 154 pd linkrender;
#X obj 213 134 s \$0-pmpdin;
#X obj 372 61 r \$0-pmpdout;
#X obj 372 84 route linkEnd massPos;
#X obj 372 110 route souple;
#X obj 460 111 route mob;
#X connect 0 0 1 0;
#X connect 2 0 3 0;
#X connect 3 0 4 0;
#X connect 3 1 0 0;
#X connect 4 0 1 0;
#X connect 5 0 6 0;
#X connect 6 0 7 0;
#X connect 7 0 10 0;
#X connect 11 0 12 0;
#X connect 12 0 13 0;
#X connect 12 1 14 0;
#X connect 13 0 9 0;
#X connect 14 0 8 0;
#X restore 23 86 pd gem_stuff;
#X obj 23 64 tgl 15 0 empty empty empty 17 7 0 10 #fcfcfc #000000 #000000 0 1;
#X text 43 63 gem on/off;
#X text 196 54 1 Create window;
#X text 196 74 2 Set dsp on;
#N canvas 579 590 553 291 compute 0;
#X obj 52 69 gemhead;
#X obj 67 163 r \$0-pmpdin;
#X obj 52 216 s \$0-pmpdout;
#X obj 52 192 pmpd2d;
#X msg 50 95 bang \, massPos \, linkEnd \, massSpeed 1 \, massSpeed 5 \, massSpeed 9 \, massSpeed 13 \, massSpeed 17 \, massSpeed 21 \, massSpeed 25 \, massSpeed 29;
#X connect 0 0 4 0;
#X connect 1 0 3 0;
#X connect 3 0 2 0;
#X connect 4 0 3 0;
#X restore 23 129 pd compute;
#X text 196 94 Drag red masses for bass and white ones for high tones...;
#X text 196 17 Additive synthesis example;
#X obj 198 122 declare -lib Gem -path pmpd;
#X connect 0 0 3 0;
#X connect 5 0 4 0;
