#N canvas 904 382 565 496 10;
#X declare -path pmpd;
#N canvas 962 510 568 520 filtrer_pmpd 0;
#X obj 40 33 bang~;
#X obj 40 63 t b b b;
#X obj 120 117 tabwrite~ sound_in;
#X obj 59 144 _until;
#X obj 59 186 tabread sound_in;
#X obj 59 165 t f f;
#X obj 59 377 tabwrite sound_out;
#X obj 59 332 pmpd;
#X obj 86 228 loadbang;
#X msg 59 353 \$3;
#X obj 40 400 s bang_tabplay;
#X obj 39 480 outlet~;
#X obj 39 457 tabplay~ sound_out;
#X obj 39 435 r bang_tabplay;
#X obj 312 56 table sound_in 64;
#X obj 312 81 table sound_out 64;
#X obj 119 24 inlet~;
#X msg 59 123 64;
#X msg 59 207 force 1 \$1 \, bang \, massPos 4;
#X obj 220 29 inlet;
#X msg 86 251 reset \, mass fix 0 \, mass sound 1 100 \, mass sound 1 100 \, mass sound 1 100 \, mass sound 1 100 \, link filter 0 1 1 10 \, link filter 1 2 1 10 \, link filter 2 3 1 10 \, link filter 3 4 1 10;
#X connect 0 0 1 0;
#X connect 1 0 10 0;
#X connect 1 1 17 0;
#X connect 1 2 2 0;
#X connect 3 0 5 0;
#X connect 4 0 18 0;
#X connect 5 0 4 0;
#X connect 5 1 6 1;
#X connect 7 0 9 0;
#X connect 8 0 20 0;
#X connect 9 0 6 0;
#X connect 12 0 11 0;
#X connect 13 0 12 0;
#X connect 16 0 2 0;
#X connect 17 0 3 0;
#X connect 18 0 7 0;
#X connect 19 0 7 0;
#X connect 20 0 7 0;
#X restore 67 247 pd filtrer_pmpd;
#X floatatom 69 91 5 0 0 0 - - - 0;
#X obj 69 111 mtof;
#X floatatom 69 132 5 0 0 0 - - - 0;
#X floatatom 155 70 5 1 200 0 - - - 0;
#X msg 155 128 setK filter \$1;
#X obj 155 108 pow 2;
#X obj 155 89 / 100;
#X obj 68 176 +~ -0.5;
#X obj 67 386 dac~;
#X text 199 69 <- this is somehow connected to cutoff frequency;
#X text 322 104 <- this is the filter quality;
#X text 199 34 analog style filter using mass-spring;
#X floatatom 284 105 5 0 500 0 - - - 0;
#X obj 284 143 pow 2;
#X obj 284 124 / 100;
#X msg 284 162 setD filter \$1;
#X obj 67 200 *~ 0.5;
#X obj 66 354 *~ 0.2;
#X text 143 400 warning : low quality mean hight resonnancy : amplitude can be very important if filter cutoff is close to input frequency;
#X obj 120 197 noise~;
#X obj 67 222 *~ 1;
#X obj 119 222 *~ 0;
#X obj 27 174 tgl 15 0 empty empty empty 17 7 0 10 #fcfcfc #000000 #000000 0 1;
#X obj 27 196 == 0;
#X obj 15 18 loadbang;
#X msg 15 40 dsp 1;
#X obj 15 61 s pd;
#X obj 69 152 phasor~ 55;
#X obj 115 9 declare -path pmpd;
#N canvas 113 363 450 300 oscillo 0;
#X obj 28 36 loadbang;
#X obj 15 212 metro 100;
#X obj 6 4 inlet~;
#X msg 28 58 1;
#X obj 29 92 tgl 20 0 empty empty Stop 0 -6 0 8 #fc2828 #000000 #000000 0 1;
#X obj 102 -4 inlet;
#X msg 137 47 1;
#X msg 105 47 0;
#X obj 102 20 moses 10;
#X obj 8 252 tabwrite~ \$0-oscillo;
#X obj 100 140 cnv 1 300 1 empty empty empty 20 12 0 14 #bcbcbc #404040 0;
#N canvas 0 0 767 419 (subpatch) 0;
#X array \$0-oscillo 3000 float 0;
#X coords 0 1 2999 -1 300 80 1;
#X restore 100 100 graph;
#X obj 100 74 change;
#X connect 0 0 3 0;
#X connect 1 0 9 0;
#X connect 2 0 9 0;
#X connect 3 0 4 0;
#X connect 4 0 1 0;
#X connect 5 0 8 0;
#X connect 6 0 12 0;
#X connect 7 0 12 0;
#X connect 8 0 7 0;
#X connect 8 1 6 0;
#X connect 8 1 1 1;
#X connect 12 0 1 0;
#X coords 0 -1 1 1 300 80 2 100 100;
#X restore 124 297 pd oscillo;
#N canvas 27 569 468 396 more 0;
#N canvas 348 414 1005 482 pmpd 0;
#X obj 52 30 inlet~;
#X obj 51 400 outlet~;
#X obj 51 256 pmpd;
#N canvas 517 142 723 537 init 0;
#X obj 154 250 t a;
#X msg 158 84 reset;
#X obj 89 17 inlet;
#X obj 154 276 outlet;
#X msg 141 112 mass fix 0 1 0;
#X msg 126 150 mass mob 1 1 0;
#X msg 93 191 link souple 0 1 0.1 0.1;
#X obj 89 59 t b b b b;
#X connect 0 0 3 0;
#X connect 1 0 0 0;
#X connect 2 0 7 0;
#X connect 4 0 0 0;
#X connect 5 0 0 0;
#X connect 6 0 0 0;
#X connect 7 0 6 0;
#X connect 7 1 5 0;
#X connect 7 2 4 0;
#X connect 7 3 1 0;
#X restore 556 125 pd init;
#X obj 556 106 bng 15 250 50 0 empty empty reset 25 10 1 10 #fcfcfc #000000 #000000;
#X obj 556 83 loadbang;
#X obj 51 312 route mob;
#X obj 51 287 route massPos;
#X obj 249 29 inlet~;
#X obj 810 72 bang~;
#X obj 51 57 inlet~todata \$0;
#X obj 249 56 inlet~todata \$0;
#X obj 870 132 s \$0-inlet_init;
#X obj 830 247 f;
#X obj 848 281 + 1;
#X msg 847 214 0;
#X obj 830 308 s \$0-inlet_index;
#X obj 830 186 until;
#X msg 830 159 64;
#X obj 810 335 s \$0-outlet-bang;
#X obj 409 29 inlet~;
#X obj 409 56 inlet~todata \$0;
#X msg 166 237 print;
#X msg 249 116 setK souple \$1;
#X msg 409 116 setD souple \$1;
#X msg 51 86 setPos 0 \$1 \, bang \, massPos mob 1;
#X obj 51 335 route 1;
#X obj 810 102 t b b b b;
#X obj 51 370 outletdatato~ \$0;
#X text 528 55 <- convert audio to data.;
#X text 172 372 <- convert adata to audio;
#X text 682 368 This part is mandatory to keep everything in sync;
#X text 298 427 Be aware that controling objects with data at audio rate need lot's of CPU;
#X connect 0 0 10 0;
#X connect 2 0 7 0;
#X connect 3 0 2 0;
#X connect 4 0 3 0;
#X connect 5 0 4 0;
#X connect 6 0 26 0;
#X connect 7 0 6 0;
#X connect 8 0 11 0;
#X connect 9 0 27 0;
#X connect 10 0 25 0;
#X connect 11 0 23 0;
#X connect 13 0 14 0;
#X connect 13 0 16 0;
#X connect 14 0 13 1;
#X connect 15 0 13 1;
#X connect 17 0 13 0;
#X connect 18 0 17 0;
#X connect 20 0 21 0;
#X connect 21 0 24 0;
#X connect 22 0 2 0;
#X connect 23 0 2 0;
#X connect 24 0 2 0;
#X connect 25 0 2 0;
#X connect 26 0 28 0;
#X connect 27 0 19 0;
#X connect 27 1 18 0;
#X connect 27 2 15 0;
#X connect 27 3 12 0;
#X connect 28 0 1 0;
#X restore 42 218 pd pmpd to pmpd~;
#X floatatom 43 36 5 0 0 0 - - - 0;
#X floatatom 96 189 5 0 0.9 0 - - - 0;
#X text 138 188 K;
#X floatatom 191 188 5 0 0.9 0 - - - 0;
#X text 244 187 D;
#X msg 191 159 0.02;
#X obj 96 126 loadbang;
#X obj 43 62 phasor~ 40;
#X msg 96 160 0.005;
#X obj 42 91 -~ 0.2;
#N canvas 113 363 450 300 oscillo 0;
#X obj 28 36 loadbang;
#X obj 15 212 metro 100;
#X obj 6 4 inlet~;
#X msg 28 58 1;
#X obj 29 92 tgl 20 0 empty empty Stop 0 -6 0 8 #fc2828 #000000 #000000 0 1;
#X obj 102 -4 inlet;
#X msg 137 47 1;
#X msg 105 47 0;
#X obj 102 20 moses 10;
#X obj 100 140 cnv 1 300 1 empty empty empty 20 12 0 14 #bcbcbc #404040 0;
#N canvas 0 0 767 419 (subpatch) 0;
#X array \$0-oscillo2 3000 float 0;
#X coords 0 1 2999 -1 300 80 1 0 0;
#X restore 100 100 graph;
#X obj 100 74 change;
#X obj 8 252 tabwrite~ \$0-oscillo2;
#X connect 0 0 3 0;
#X connect 1 0 12 0;
#X connect 2 0 12 0;
#X connect 3 0 4 0;
#X connect 4 0 1 0;
#X connect 5 0 8 0;
#X connect 6 0 11 0;
#X connect 7 0 11 0;
#X connect 8 0 7 0;
#X connect 8 1 6 0;
#X connect 8 1 1 1;
#X connect 11 0 1 0;
#X coords 0 -1 1 1 300 80 2 100 100;
#X restore 43 284 pd oscillo;
#X connect 0 0 11 0;
#X connect 1 0 8 0;
#X connect 2 0 0 1;
#X connect 4 0 0 2;
#X connect 6 0 4 0;
#X connect 7 0 9 0;
#X connect 7 0 6 0;
#X connect 8 0 10 0;
#X connect 9 0 2 0;
#X connect 10 0 0 0;
#X restore 75 460 pd more;
#X text 125 461 see inside for abstractions that make things easier;
#X connect 0 0 18 0;
#X connect 0 0 30 0;
#X connect 1 0 2 0;
#X connect 2 0 3 0;
#X connect 3 0 28 0;
#X connect 4 0 7 0;
#X connect 5 0 0 1;
#X connect 6 0 5 0;
#X connect 7 0 6 0;
#X connect 8 0 17 0;
#X connect 13 0 15 0;
#X connect 14 0 16 0;
#X connect 15 0 14 0;
#X connect 16 0 0 1;
#X connect 17 0 21 0;
#X connect 18 0 9 0;
#X connect 18 0 9 1;
#X connect 20 0 22 0;
#X connect 21 0 0 0;
#X connect 22 0 0 0;
#X connect 23 0 24 0;
#X connect 23 0 22 1;
#X connect 24 0 21 1;
#X connect 25 0 26 0;
#X connect 26 0 27 0;
#X connect 28 0 8 0;
