#N canvas 651 263 429 631 10;
#X declare -path pmpd;
#X floatatom 32 62 0 0 0 0 - - - 0;
#N canvas 0 0 454 304 cpu 0;
#X obj 61 159 cputime;
#X obj 61 19 loadbang;
#X obj 61 103 metro 1000;
#X msg 61 47 1;
#X floatatom 61 75 0 0 0 0 - - - 0;
#X obj 61 131 t b b;
#X obj 61 219 * 0.1;
#X obj 61 188 int;
#X text 106 75 <-- on/off;
#X obj 61 246 outlet;
#X connect 0 0 7 0;
#X connect 1 0 3 0;
#X connect 2 0 5 0;
#X connect 3 0 4 0;
#X connect 4 0 2 0;
#X connect 5 0 0 0;
#X connect 5 1 0 1;
#X connect 6 0 9 0;
#X connect 7 0 6 0;
#X restore 32 36 pd cpu;
#X obj 97 437 tabwrite~ array99;
#X msg 80 64 \; pd dsp 1 \;;
#X obj 80 36 loadbang;
#N canvas 0 0 450 300 (subpatch) 0;
#X array array99 3000 float 0;
#X coords 0 1 2999 -1 150 100 1;
#X restore 30 486 graph;
#X obj 28 155 bng 15 250 50 0 empty empty empty 0 -6 0 8 #fcfcfc #000000 #000000;
#X obj 45 155 loadbang;
#X obj 206 44 declare -path pmpd;
#N canvas 33 440 592 541 structure 0;
#X obj 92 4 inlet;
#X obj 155 479 outlet;
#X obj 86 32 t b b b b b;
#X text 464 424 fixed masses;
#X text 475 382 mobil mass;
#X msg 183 300 link 0 1 0.001 0 1;
#X obj 38 498 outlet;
#X msg 188 323 link 1 2 0.001 0 1;
#X msg 345 423 reset \, mass 0 0 0;
#X msg 90 118 outPosX 0 2 1;
#X msg 104 142 outPosY 1 2 1;
#X msg 135 214 inForceY 0 2 1;
#X msg 139 242 inForceY 0 1 1;
#X text 259 230 gravity;
#X msg 305 386 mass 10 0 1 \, mass 10 1 2;
#X connect 0 0 2 0;
#X connect 2 0 6 0;
#X connect 2 1 11 0;
#X connect 2 1 12 0;
#X connect 2 1 9 0;
#X connect 2 1 10 0;
#X connect 2 2 5 0;
#X connect 2 2 7 0;
#X connect 2 3 14 0;
#X connect 2 4 8 0;
#X connect 5 0 1 0;
#X connect 7 0 1 0;
#X connect 8 0 1 0;
#X connect 9 0 1 0;
#X connect 10 0 1 0;
#X connect 11 0 1 0;
#X connect 12 0 1 0;
#X connect 14 0 1 0;
#X restore 28 177 pd structure;
#X obj 129 266 bng 18 250 50 0 empty empty empty 0 -9 0 10 #fcfcfc #000000 #000000;
#X obj 118 383 dac~;
#N canvas 0 0 450 300 (subpatch) 0;
#X array array98 3000 float 0;
#X coords 0 1 2999 -1 150 100 1 0 0;
#X restore 202 488 graph;
#X obj 215 359 metro 100;
#X obj 215 333 tgl 15 0 empty empty empty 0 -6 0 8 #fcfcfc #000000 #000000 0 1;
#X obj 241 336 loadbang;
#X obj 158 412 tabwrite~ array98;
#X obj 96 321 hip~ 1;
#X obj 160 321 hip~ 1;
#X text 27 118 pmpd2d~ audio example. Double pendulum simulation for chaotic result;
#X obj 114 242 sig~ -0.001;
#X obj 97 293 pmpd2d~ 1 2 2;
#X text 197 240 gravity;
#X text 171 267 print internal connection;
#X obj 96 349 *~ 0.15;
#X obj 159 350 *~ 0.15;
#X msg 28 211 forceX 2 0.03;
#X connect 1 0 0 0;
#X connect 4 0 3 0;
#X connect 6 0 9 0;
#X connect 7 0 9 0;
#X connect 9 1 21 0;
#X connect 10 0 21 0;
#X connect 13 0 16 0;
#X connect 13 0 2 0;
#X connect 14 0 13 0;
#X connect 15 0 13 0;
#X connect 15 0 14 0;
#X connect 17 0 24 0;
#X connect 18 0 25 0;
#X connect 20 0 21 0;
#X connect 21 0 17 0;
#X connect 21 1 18 0;
#X connect 24 0 2 0;
#X connect 24 0 11 0;
#X connect 25 0 11 1;
#X connect 25 0 16 0;
#X connect 26 0 21 0;
