#N canvas 678 298 411 584 10;
#X declare -path pmpd;
#X floatatom 32 62 0 0 0 0 - - - 0;
#N canvas 0 0 454 304 cpu 0;
#X obj 61 159 cputime;
#X obj 61 19 loadbang;
#X obj 61 103 metro 1000;
#X msg 61 47 1;
#X floatatom 61 75 0 0 0 0 - - - 0;
#X obj 61 131 t b b;
#X obj 61 219 * 0.1;
#X obj 61 188 int;
#X text 106 75 <-- on/off;
#X obj 61 246 outlet;
#X connect 0 0 7 0;
#X connect 1 0 3 0;
#X connect 2 0 5 0;
#X connect 3 0 4 0;
#X connect 4 0 2 0;
#X connect 5 0 0 0;
#X connect 5 1 0 1;
#X connect 6 0 9 0;
#X connect 7 0 6 0;
#X restore 32 36 pd cpu;
#X obj 98 407 tabwrite~ array99;
#X msg 80 64 \; pd dsp 1 \;;
#X obj 80 36 loadbang;
#N canvas 0 0 450 300 (subpatch) 0;
#X array array99 3000 float 0;
#X coords 0 1 2999 -1 150 100 1;
#X restore 30 456 graph;
#X obj 28 175 bng 15 250 50 0 empty empty empty 0 -6 0 8 #fcfcfc #000000 #000000;
#X obj 45 175 loadbang;
#X obj 206 44 declare -path pmpd;
#N canvas 33 440 592 541 structure 0;
#X msg 345 423 reset;
#X obj 92 4 inlet;
#X obj 155 479 outlet;
#X obj 86 32 t b b b b b;
#X msg 224 322 mass 0 1 0;
#X msg 205 299 mass 0 0 -1;
#X msg 239 348 mass 0 -1 0;
#X text 329 309 fixed masses;
#X text 411 385 mobil mass;
#X msg 63 92 outPosX 0 0 1;
#X msg 192 276 mass 0 0 1;
#X msg 77 116 outPosY 1 0 1;
#X msg 305 386 mass 10 0 0;
#X msg 180 222 link 0 4 0.001 0 1;
#X msg 165 200 link 0 3 0.001 0 1;
#X msg 143 177 link 0 2 0.001 0 1;
#X msg 138 154 link 0 1 0.001 0 1;
#X obj 40 64 t b b;
#X obj 38 498 outlet;
#X connect 0 0 2 0;
#X connect 1 0 3 0;
#X connect 3 0 17 0;
#X connect 3 1 16 0;
#X connect 3 1 13 0;
#X connect 3 1 14 0;
#X connect 3 1 15 0;
#X connect 3 2 10 0;
#X connect 3 2 6 0;
#X connect 3 2 5 0;
#X connect 3 2 4 0;
#X connect 3 3 12 0;
#X connect 3 4 0 0;
#X connect 4 0 2 0;
#X connect 5 0 2 0;
#X connect 6 0 2 0;
#X connect 9 0 2 0;
#X connect 10 0 2 0;
#X connect 11 0 2 0;
#X connect 12 0 2 0;
#X connect 13 0 2 0;
#X connect 14 0 2 0;
#X connect 15 0 2 0;
#X connect 16 0 2 0;
#X connect 17 0 18 0;
#X connect 17 1 9 0;
#X connect 17 1 11 0;
#X restore 28 197 pd structure;
#X obj 129 266 bng 18 250 50 0 empty empty empty 0 -9 0 10 #fcfcfc #000000 #000000;
#X obj 97 293 pmpd2d~ 0 2;
#X obj 118 353 dac~;
#N canvas 0 0 450 300 (subpatch) 0;
#X array array98 3000 float 0;
#X coords 0 1 2999 -1 150 100 1 0 0;
#X restore 202 458 graph;
#X obj 205 319 metro 100;
#X obj 205 293 tgl 15 0 empty empty empty 0 -6 0 8 #fcfcfc #000000 #000000 0 1;
#X obj 231 296 loadbang;
#X obj 158 382 tabwrite~ array98;
#X obj 97 319 *~ 1;
#X obj 159 320 *~ 1;
#X msg 28 231 posX 0 0.3 \, posY 0 0.84;
#X text 27 118 pmpd2d~ audio example. using a simple model that create chaotic oscillations;
#X connect 1 0 0 0;
#X connect 4 0 3 0;
#X connect 6 0 9 0;
#X connect 7 0 9 0;
#X connect 9 0 20 0;
#X connect 9 1 11 0;
#X connect 10 0 11 0;
#X connect 11 0 18 0;
#X connect 11 1 19 0;
#X connect 14 0 17 0;
#X connect 14 0 2 0;
#X connect 15 0 14 0;
#X connect 16 0 14 0;
#X connect 16 0 15 0;
#X connect 18 0 2 0;
#X connect 18 0 12 0;
#X connect 19 0 12 1;
#X connect 19 0 17 0;
#X connect 20 0 11 0;
