#N canvas 787 285 571 584 12;
#N canvas 823 173 764 725 struture 0;
#X obj 91 618 r \$0-pmpd;
#X msg 518 163 10;
#X obj 518 188 until;
#X msg 520 373 mass 1 \$1 \$2 \$3;
#X obj 516 268 / 1000;
#X obj 516 244 random 1001;
#X obj 518 218 t b b;
#X obj 573 294 / 1000;
#X obj 573 270 random 1001;
#X obj 625 319 / 1000;
#X obj 625 295 random 1001;
#X obj 517 343 pack f f f;
#X obj 100 31 inlet;
#X obj 322 260 until;
#X obj 322 290 t b b;
#X obj 321 395 pack f f;
#X obj 320 316 random 10;
#X msg 606 156 reset;
#X msg 281 167 mass 0 0 0 0 \, mass 0 1 1 1;
#X obj 377 342 random 10;
#X obj 320 340 + 0;
#X obj 377 366 + 0;
#X obj 113 318 random 10;
#X obj 113 342 + 0;
#X obj 23 344 random 10;
#X obj 23 368 + 0;
#X obj 113 290 until;
#X obj 23 290 until;
#X msg 113 265 3;
#X msg 23 265 3;
#X obj 74 680 outlet~;
#X obj 74 649 pmpd3d~ 0 2;
#X obj 148 684 outlet~;
#X obj 134 77 t b b b b b b b;
#X msg 15 466 outSpeed 0 0 1 \, outSpeed 0 1 1 \, outSpeed 0 2 1 \, outSpeed 0 3 1 \, outSpeed 1 4 1 \, outSpeed 1 5 1 \, outSpeed 1 6 1 \, outSpeed 1 7 1, f 63;
#X msg 321 421 link \$1 \$2 0.0003 0.0001 0.3;
#X msg 113 367 link 10 \$1 0.0003 0.0001 0.3;
#X msg 23 393 link 11 \$1 0.0003 0.0001 0.3;
#X msg 322 235 20;
#X connect 0 0 31 0;
#X connect 1 0 2 0;
#X connect 2 0 6 0;
#X connect 3 0 31 0;
#X connect 4 0 11 0;
#X connect 5 0 4 0;
#X connect 6 0 5 0;
#X connect 6 1 10 0;
#X connect 6 1 8 0;
#X connect 7 0 11 1;
#X connect 8 0 7 0;
#X connect 9 0 11 2;
#X connect 10 0 9 0;
#X connect 11 0 3 0;
#X connect 12 0 33 0;
#X connect 13 0 14 0;
#X connect 14 0 16 0;
#X connect 14 1 19 0;
#X connect 15 0 35 0;
#X connect 16 0 20 0;
#X connect 17 0 31 0;
#X connect 18 0 31 0;
#X connect 19 0 21 0;
#X connect 20 0 15 0;
#X connect 21 0 15 1;
#X connect 22 0 23 0;
#X connect 23 0 36 0;
#X connect 24 0 25 0;
#X connect 25 0 37 0;
#X connect 26 0 22 0;
#X connect 27 0 24 0;
#X connect 28 0 26 0;
#X connect 29 0 27 0;
#X connect 31 0 30 0;
#X connect 31 1 32 0;
#X connect 33 0 29 0;
#X connect 33 0 34 0;
#X connect 33 1 28 0;
#X connect 33 2 38 0;
#X connect 33 3 18 0;
#X connect 33 4 1 0;
#X connect 33 5 17 0;
#X connect 34 0 31 0;
#X connect 35 0 31 0;
#X connect 36 0 31 0;
#X connect 37 0 31 0;
#X connect 38 0 13 0;
#X restore 43 130 pd struture;
#X obj 43 102 bng 20 250 50 0 empty empty empty 0 -10 0 12 #fcfcfc #000000 #000000;
#X obj 39 529 s \$0-pmpd;
#X obj 43 158 hip~ 20;
#X obj 117 162 hip~ 20;
#X obj 39 471 random 10;
#X msg 39 500 forceX \$1 1;
#X obj 39 442 bng 20 250 50 0 empty empty empty 0 -10 0 12 #fcfcfc #000000 #000000;
#X obj 139 529 s \$0-pmpd;
#X obj 139 471 random 10;
#X obj 139 442 bng 20 250 50 0 empty empty empty 0 -10 0 12 #fcfcfc #000000 #000000;
#X obj 239 529 s \$0-pmpd;
#X obj 239 471 random 10;
#X obj 239 442 bng 20 250 50 0 empty empty empty 0 -10 0 12 #fcfcfc #000000 #000000;
#X msg 139 500 forceY \$1 1;
#X msg 239 500 forceZ \$1 1;
#X text 79 102 <- random structure (click to change the sound);
#X obj 43 190 dac~;
#X text 73 16 10 masses are randomly put en the 3d space. Few connections are created between this masses.;
#X obj 43 73 loadbang;
#X text 277 442 <- send forces to random masses;
#N canvas 985 594 450 300 oscillo~ 0;
#X obj 30 14 loadbang;
#X obj 15 212 metro 100;
#X obj -3 -20 inlet~;
#X msg 30 36 1;
#X obj 31 70 tgl 20 0 empty empty Stop 0 -6 0 8 #fc2828 #000000 #000000 0 1;
#X obj 107 -14 inlet;
#X msg 136 37 1;
#X msg 104 37 0;
#X obj 107 10 moses 10;
#X obj 8 252 tabwrite~ \$0-oscillo;
#X obj 100 140 cnv 1 300 1 empty empty empty 20 12 0 14 #bcbcbc #404040 0;
#N canvas 0 0 767 419 (subpatch) 0;
#X array \$0-oscillo 3000 float 0;
#X coords 0 1 2999 -1 300 80 1;
#X restore 100 100 graph;
#X obj 99 64 change;
#X connect 0 0 3 0;
#X connect 1 0 9 0;
#X connect 2 0 9 0;
#X connect 3 0 4 0;
#X connect 4 0 1 0;
#X connect 5 0 8 0;
#X connect 6 0 12 0;
#X connect 7 0 12 0;
#X connect 8 0 7 0;
#X connect 8 1 6 0;
#X connect 8 1 1 1;
#X connect 12 0 1 0;
#X coords 0 -1 1 1 300 80 2 100 100;
#X restore 116 212 pd oscillo~;
#N canvas 985 594 450 300 oscillo~ 0;
#X obj 30 14 loadbang;
#X obj 15 212 metro 100;
#X obj -3 -20 inlet~;
#X msg 30 36 1;
#X obj 31 70 tgl 20 0 empty empty Stop 0 -6 0 8 #fc2828 #000000 #000000 0 1;
#X obj 107 -14 inlet;
#X msg 136 37 1;
#X msg 104 37 0;
#X obj 107 10 moses 10;
#X obj 100 140 cnv 1 300 1 empty empty empty 20 12 0 14 #bcbcbc #404040 0;
#N canvas 0 0 767 419 (subpatch) 0;
#X array \$0-oscillo2 3000 float 0;
#X coords 0 1 2999 -1 300 80 1 0 0;
#X restore 100 100 graph;
#X obj 99 64 change;
#X obj 8 253 tabwrite~ \$0-oscillo2;
#X connect 0 0 3 0;
#X connect 1 0 12 0;
#X connect 2 0 12 0;
#X connect 3 0 4 0;
#X connect 4 0 1 0;
#X connect 5 0 8 0;
#X connect 6 0 11 0;
#X connect 7 0 11 0;
#X connect 8 0 7 0;
#X connect 8 1 6 0;
#X connect 8 1 1 1;
#X connect 11 0 1 0;
#X coords 0 -1 1 1 300 80 2 100 100;
#X restore 117 310 pd oscillo~;
#X connect 0 0 3 0;
#X connect 0 1 4 0;
#X connect 1 0 0 0;
#X connect 3 0 17 0;
#X connect 3 0 22 0;
#X connect 4 0 17 1;
#X connect 4 0 21 0;
#X connect 5 0 6 0;
#X connect 6 0 2 0;
#X connect 7 0 5 0;
#X connect 9 0 14 0;
#X connect 10 0 9 0;
#X connect 12 0 15 0;
#X connect 13 0 12 0;
#X connect 14 0 8 0;
#X connect 15 0 11 0;
#X connect 19 0 1 0;
