#N canvas 732 121 668 828 12;
#X declare -lib pmpd;
#X obj 30 611 pmpd~ 1 1;
#X obj 111 608 bng 20 250 50 0 empty empty empty 0 -10 0 12 #fcfcfc #000000 #000000;
#X obj 30 111 loadbang;
#X msg 77 424 setD 0 \$1;
#X floatatom 87 400 9 0 0 0 - - - 0;
#X obj 93 486 *~;
#X obj 127 485 tgl 20 0 empty empty empty 0 -10 0 12 #fcfcfc #000000 #000000 0 1;
#X obj 92 455 noise~;
#X floatatom 172 715 9 0 0 0 - - - 0;
#X obj 60 170 hsl 162 19 0 127 0 1 empty empty empty -2 -10 0 12 #fcfcfc #000000 #000000 7500 1;
#X floatatom 57 223 5 0 0 0 - - - 0;
#X obj 57 199 mtof;
#X obj 172 662 route 1;
#X obj 49 636 fiddle~ 8192 1 1 1;
#X obj 172 688 unpack f f;
#X obj 239 715 rmstodb;
#X floatatom 239 742 5 0 0 0 - - - 0;
#X obj 57 251 ftok;
#X floatatom 68 281 9 0 0 0 - - - 0;
#X msg 57 305 setK 0 \$1;
#X obj 77 361 ttod;
#X msg 30 137 reset \, mass 0 \, mass 1000 \, link 0 1 0 0 \, inPos 0 0 1 \, outPos 0 1 1, f 65;
#X obj 26 20 declare -lib pmpd;
#X text 250 170 change the frequency of the resonator;
#X obj 29 704 dac~;
#X obj 104 545 line~;
#X msg 104 519 1 \, 0 10;
#N canvas 985 594 450 300 oscillo~ 0;
#X obj 30 14 loadbang;
#X obj 15 212 metro 100;
#X obj -3 -20 inlet~;
#X msg 30 36 1;
#X obj 31 70 tgl 20 0 empty empty Stop 0 -6 0 8 #fc2828 #000000 #000000 0 1;
#X obj 107 -14 inlet;
#X msg 136 37 1;
#X msg 104 37 0;
#X obj 107 10 moses 10;
#X obj 8 252 tabwrite~ \$0-oscillo;
#X obj 100 140 cnv 1 300 1 empty empty empty 20 12 0 14 #bcbcbc #404040 0;
#N canvas 0 0 767 419 (subpatch) 0;
#X array \$0-oscillo 3000 float 0;
#X coords 0 1 2999 -1 300 80 1;
#X restore 100 100 graph;
#X obj 99 64 change;
#X connect 0 0 3 0;
#X connect 1 0 9 0;
#X connect 2 0 9 0;
#X connect 3 0 4 0;
#X connect 4 0 1 0;
#X connect 5 0 8 0;
#X connect 6 0 12 0;
#X connect 7 0 12 0;
#X connect 8 0 7 0;
#X connect 8 1 6 0;
#X connect 8 1 1 1;
#X connect 12 0 1 0;
#X coords 0 -1 1 1 300 80 2 100 100;
#X restore 313 608 pd oscillo~;
#X obj 76 334 nbx 5 18 -1e+37 1e+37 0 1 empty empty empty 0 -10 0 12 #fcfcfc #000000 #000000 5000 256;
#X text 141 333 set the time for 60dB decay (ms);
#X obj 313 569 clip~ -1 1;
#X text 209 14 This patch create a simple mass / spring resonator.;
#X text 208 36 You can change the frequence and the resonance factor of this resonator.;
#X text 173 484 <-------- send noise;
#X text 183 517 <-------- send impulsions;
#X connect 0 0 13 0;
#X connect 0 0 24 0;
#X connect 0 0 24 1;
#X connect 0 0 30 0;
#X connect 1 0 0 0;
#X connect 2 0 21 0;
#X connect 3 0 0 0;
#X connect 5 0 0 0;
#X connect 6 0 5 1;
#X connect 7 0 5 0;
#X connect 9 0 11 0;
#X connect 10 0 17 0;
#X connect 11 0 10 0;
#X connect 12 0 14 0;
#X connect 13 4 12 0;
#X connect 14 0 8 0;
#X connect 14 1 15 0;
#X connect 15 0 16 0;
#X connect 17 0 19 0;
#X connect 17 0 18 0;
#X connect 19 0 0 0;
#X connect 20 0 3 0;
#X connect 20 0 4 0;
#X connect 21 0 0 0;
#X connect 25 0 0 0;
#X connect 26 0 25 0;
#X connect 28 0 20 0;
#X connect 30 0 27 0;
