#N canvas 595 278 564 673 12;
#X declare -lib pmpd;
#X obj 30 501 pmpd~ 1 1;
#X obj 104 456 bng 20 250 50 0 empty empty empty 0 -10 0 12 #fcfcfc #000000 #000000;
#X obj 30 41 loadbang;
#X floatatom 77 263 5 0 0 0 - - - 0;
#X msg 77 354 setD 0 \$1;
#X floatatom 87 330 9 0 0 0 - - - 0;
#X obj 93 416 *~;
#X obj 127 415 tgl 20 0 empty empty empty 0 -10 0 12 #fcfcfc #000000 #000000 0 1;
#X obj 92 385 noise~;
#X floatatom 172 605 9 0 0 0 - - - 0;
#X obj 60 100 hsl 162 19 0 127 0 1 empty empty empty -2 -10 0 12 #fcfcfc #000000 #000000 8900 1;
#X floatatom 57 153 5 0 0 0 - - - 0;
#X obj 57 129 mtof;
#X obj 172 552 route 1;
#X obj 49 526 fiddle~ 8192 1 1 1;
#X obj 172 578 unpack f f;
#X obj 239 605 rmstodb;
#X floatatom 239 632 5 0 0 0 - - - 0;
#X obj 57 181 ftok;
#X floatatom 68 211 9 0 0 0 - - - 0;
#X msg 57 235 setK 0 \$1;
#X obj 77 291 ttod;
#X msg 30 67 reset \, mass 0 \, mass 1000 \, link 0 1 0 0 \, inPos 0 0 1 \, outPos 0 1 1, f 70;
#X obj 31 14 declare -lib pmpd;
#X text 250 100 change the frequency of the resonator;
#X text 141 263 set the time for 60dB decay;
#X obj 29 594 dac~;
#X connect 0 0 14 0;
#X connect 0 0 26 0;
#X connect 0 0 26 1;
#X connect 1 0 0 0;
#X connect 2 0 22 0;
#X connect 3 0 21 0;
#X connect 4 0 0 0;
#X connect 6 0 0 0;
#X connect 7 0 6 1;
#X connect 8 0 6 0;
#X connect 10 0 12 0;
#X connect 11 0 18 0;
#X connect 12 0 11 0;
#X connect 13 0 15 0;
#X connect 14 4 13 0;
#X connect 15 0 9 0;
#X connect 15 1 16 0;
#X connect 16 0 17 0;
#X connect 18 0 20 0;
#X connect 18 0 19 0;
#X connect 20 0 0 0;
#X connect 21 0 4 0;
#X connect 21 0 5 0;
#X connect 22 0 0 0;
