#N canvas 688 135 544 637 10;
#X obj 49 252 clone -do mc_fade.cl 16;
#X obj 49 449 clone -di mc_fade.cl 16;
#X obj 49 533 *~;
#X obj 121 291 bng 16 250 50 0 empty empty empty 0 -8 0 10 #fcfcfc #000000 #000000;
#X obj 49 344 pmpd2d~ -m 16 16;
#X obj 300 476 hsl 136 16 0 1 0 0 empty empty volume -2 -8 0 10 #fcfcfc #000000 #000000 0 1;
#X obj 297 497 lop~ 1;
#X obj 297 518 pow~ 4;
#X obj 49 570 dac~;
#X obj 30 328 bng 16 250 50 0 empty empty empty 0 -8 0 10 #fcfcfc #000000 #000000;
#N canvas 0 50 450 250 (subpatch) 0;
#X array \$0-string 16 float 4;
#X coords 0 1 15 -1 200 140 1 0 0;
#X restore 298 251 graph;
#X obj 301 215 hsl 196 16 0 15 0 0 empty empty exciter\ position -2 -8 0 10 #fcfcfc #000000 #000000 0 1;
#X obj 184 231 lop~ 1;
#X obj 300 412 hsl 196 16 0 15 0 0 empty empty pickup\ position -2 -8 0 10 #fcfcfc #000000 #000000 0 1;
#X obj 184 428 lop~ 1;
#X obj 64 375 clone -di to_array.cl 16 \$0-string;
#N canvas 277 311 479 369 create_string 0;
#X obj 37 37 inlet;
#X msg 54 100 16;
#X obj 54 121 until;
#X obj 54 152 f;
#X obj 81 152 + 1;
#X msg 92 121 0;
#X obj 54 173 t f f;
#X obj 81 194 + 1;
#X obj 54 215 pack;
#X text 234 214 first fixed mass;
#X text 238 290 last fixed mass;
#X obj 37 64 t b b b b;
#X msg 157 214 reset \, mass;
#X text 338 251 moving masses;
#X obj 37 317 outlet;
#X msg 54 246 mass 100 \$2 0.01 0.01 \, link \$1 \$2 4 2 0.7 \, inForceY \$1 \$2 1 \, outPosY \$1 \$2 1, f 45;
#X msg 37 289 mass 0 17 \, link 16 17 4 2 0.7;
#X connect 0 0 11 0;
#X connect 1 0 2 0;
#X connect 2 0 3 0;
#X connect 3 0 4 0;
#X connect 3 0 6 0;
#X connect 4 0 3 1;
#X connect 5 0 3 1;
#X connect 6 0 8 0;
#X connect 6 1 7 0;
#X connect 7 0 8 1;
#X connect 8 0 15 0;
#X connect 11 0 16 0;
#X connect 11 1 1 0;
#X connect 11 2 5 0;
#X connect 11 3 12 0;
#X connect 12 0 14 0;
#X connect 15 0 14 0;
#X connect 16 0 14 0;
#X restore 64 312 pd create_string;
#X obj 64 292 loadbang;
#X obj 49 48 phasor~ 1;
#X obj 49 492 expr~ tanh($v1);
#X obj 162 112 noise~;
#X obj 117 173 *~;
#X obj 49 194 *~;
#X obj 295 157 hradio 16 1 1 2 empty empty pick/bow 0 -8 0 10 #fcfcfc #000000 #000000 0;
#X obj 64 173 == 0;
#X obj 117 86 cos~;
#X obj 117 149 *~;
#X obj 117 107 +~ 1;
#X obj 117 128 *~ 0.5;
#X obj 162 133 *~ 0.2;
#X obj 49 140 *~ 0.5;
#X obj 49 86 pow~ 6;
#X connect 0 0 4 0;
#X connect 1 0 19 0;
#X connect 2 0 8 0;
#X connect 2 0 8 1;
#X connect 3 0 16 0;
#X connect 4 0 15 0;
#X connect 4 0 1 0;
#X connect 5 0 6 0;
#X connect 6 0 7 0;
#X connect 7 0 2 1;
#X connect 9 0 4 0;
#X connect 11 0 12 0;
#X connect 12 0 0 1;
#X connect 13 0 14 0;
#X connect 14 0 1 1;
#X connect 16 0 4 0;
#X connect 17 0 16 0;
#X connect 18 0 25 0;
#X connect 18 0 31 0;
#X connect 19 0 2 0;
#X connect 20 0 29 0;
#X connect 21 0 0 0;
#X connect 22 0 0 0;
#X connect 23 0 24 0;
#X connect 23 0 21 1;
#X connect 24 0 22 1;
#X connect 25 0 27 0;
#X connect 26 0 21 0;
#X connect 27 0 28 0;
#X connect 28 0 26 0;
#X connect 29 0 26 1;
#X connect 30 0 22 0;
#X connect 31 0 30 0;
