#N canvas 453 71 584 740 10;
#X obj 49 643 *~;
#X obj 330 585 hsl 136 16 0 1 0 0 empty empty volume -2 -8 0 10 #fcfcfc #000000 #000000 0 1;
#X obj 49 680 dac~;
#X obj 30 335 bng 16 250 50 0 empty empty empty 0 -8 0 10 #fcfcfc #000000 #000000;
#N canvas 0 50 450 250 (subpatch) 0;
#X array \$0-string 66 float 4;
#X coords 0 6 65 -6 200 140 1 0 0;
#X restore 328 271 graph;
#X obj 331 235 hsl 196 16 -1 65 0 0 empty \$0-exciter-pos exciter\ position -2 -8 0 10 #fcfcfc #000000 #000000 0 1;
#X obj 330 432 hsl 196 16 -1 65 0 0 empty \$0-pickup-pos pickup\ position -2 -8 0 10 #fcfcfc #000000 #000000 0 1;
#X obj 49 68 phasor~ 1;
#X obj 162 132 noise~;
#X obj 117 193 *~;
#X obj 49 214 *~;
#X obj 325 177 hradio 16 1 0 2 empty \$0-pick_bow pick/bow 0 -8 0 10 #fcfcfc #000000 #000000 0;
#X obj 64 193 == 0;
#X obj 117 106 cos~;
#X obj 117 169 *~;
#X obj 117 127 +~ 1;
#X obj 117 148 *~ 0.5;
#X obj 162 153 *~ 0.2;
#X obj 49 127 *~ 0.5;
#X text 169 39 This example show how to use multichannel signals with pmpd.;
#X floatatom 49 42 5 0 0 0 - - - 0;
#X obj 184 448 lop~ 4;
#X obj 330 490 hsl 136 16 40 240 1 0 empty \$0-tension tension -2 -8 0 10 #fcfcfc #000000 #000000 0 1;
#X obj 446 659 bng 16 250 50 0 empty empty empty 0 -8 0 10 #fcfcfc #000000 #000000;
#X obj 62 335 r \$0-pmpd;
#X obj 49 106 pow~ 9;
#X obj 184 251 lop~ 4;
#X obj 327 532 s \$0-pmpd;
#N canvas 1188 505 450 300 init/reset 0;
#X obj 84 43 loadbang;
#X obj 76 228 s \$0-exciter-pos;
#X obj 42 251 s \$0-pickup-pos;
#X obj 112 205 s \$0-pick_bow;
#N canvas 277 311 479 369 create_string 0;
#X obj 37 37 inlet;
#X obj 54 121 until;
#X obj 54 152 f;
#X obj 81 152 + 1;
#X msg 92 121 0;
#X obj 54 173 t f f;
#X obj 81 194 + 1;
#X obj 54 215 pack;
#X text 234 214 first fixed mass;
#X text 226 289 last fixed mass;
#X obj 37 64 t b b b b;
#X msg 157 214 reset \, mass;
#X text 314 251 moving masses;
#X obj 37 317 outlet;
#X msg 54 100 64;
#X msg 37 289 mass 0 65 \, link 64 65 10 1 0.7;
#X msg 54 246 mass 100 \$2 0 0.005 \, link \$1 \$2 10 1 0.7 \, inForceY \$1 \$2 1 \, outPosY \$1 \$2 1, f 41;
#X connect 0 0 10 0;
#X connect 1 0 2 0;
#X connect 2 0 3 0;
#X connect 2 0 5 0;
#X connect 3 0 2 1;
#X connect 4 0 2 1;
#X connect 5 0 7 0;
#X connect 5 1 6 0;
#X connect 6 0 7 1;
#X connect 7 0 16 0;
#X connect 10 0 15 0;
#X connect 10 1 14 0;
#X connect 10 2 4 0;
#X connect 10 3 11 0;
#X connect 11 0 13 0;
#X connect 14 0 1 0;
#X connect 15 0 13 0;
#X connect 16 0 13 0;
#X restore 251 116 pd create_string;
#X obj 43 43 inlet;
#X obj 42 80 t b;
#X obj 199 167 s \$0-tension;
#X obj 251 137 s \$0-pmpd;
#X obj 251 79 bng 16 250 50 0 empty empty empty 0 -8 0 10 #fcfcfc #000000 #000000;
#X msg 199 117 65;
#X msg 76 117 55;
#X msg 112 117 0;
#X msg 42 117 50;
#X connect 0 0 6 0;
#X connect 4 0 8 0;
#X connect 5 0 6 0;
#X connect 6 0 13 0;
#X connect 6 0 4 0;
#X connect 6 0 10 0;
#X connect 6 0 12 0;
#X connect 6 0 11 0;
#X connect 9 0 4 0;
#X connect 10 0 7 0;
#X connect 11 0 1 0;
#X connect 12 0 3 0;
#X connect 13 0 2 0;
#X restore 446 680 pd init/reset;
#X obj 49 364 pmpd2d~ -m 64 64;
#X obj 62 393 clone -s 1 -di to_array.cl 64 \$0-string;
#X obj 49 469 clone -di mc_fade.cl 64;
#X obj 49 272 clone -do mc_fade.cl 64;
#X msg 327 511 posX 65 \$1;
#X text 169 59 A single inlet receives forces for 64 masses and the outlet outputs positions of these 64 masses. Clone objects allow to send forces to the desired position and to dynamically pick up the signal from another position.;
#X obj 327 606 lop~ 4;
#X obj 327 627 pow~ 4;
#X connect 0 0 2 0;
#X connect 0 0 2 1;
#X connect 1 0 35 0;
#X connect 3 0 29 0;
#X connect 5 0 26 0;
#X connect 6 0 21 0;
#X connect 7 0 13 0;
#X connect 7 0 25 0;
#X connect 8 0 17 0;
#X connect 9 0 32 0;
#X connect 10 0 32 0;
#X connect 11 0 12 0;
#X connect 11 0 9 1;
#X connect 12 0 10 1;
#X connect 13 0 15 0;
#X connect 14 0 9 0;
#X connect 15 0 16 0;
#X connect 16 0 14 0;
#X connect 17 0 14 1;
#X connect 18 0 10 0;
#X connect 20 0 7 0;
#X connect 21 0 31 1;
#X connect 22 0 33 0;
#X connect 23 0 28 0;
#X connect 24 0 29 0;
#X connect 25 0 18 0;
#X connect 26 0 32 1;
#X connect 29 0 30 0;
#X connect 29 0 31 0;
#X connect 31 0 0 0;
#X connect 32 0 29 0;
#X connect 33 0 27 0;
#X connect 35 0 36 0;
#X connect 36 0 0 1;
