#N canvas 321 487 690 342 12;
#X obj 54 71 samplerate~;
#X obj 36 94 /;
#X obj 54 45 loadbang;
#X obj 36 158 *;
#X obj 36 126 t f f;
#X obj 36 189 expr $f1/(($f1*$f1*$f1*0.00033852)+($f1*$f1*0.00016293)+($f1*0.00008309)+0.00002534);
#X obj 36 11 inlet;
#X obj 36 244 outlet;
#X text 213 28 compute k for an harmonic oscillator based on a mass of weigth 1000;
#X connect 0 0 1 1;
#X connect 1 0 4 0;
#X connect 2 0 0 0;
#X connect 3 0 5 0;
#X connect 4 0 3 0;
#X connect 4 1 3 1;
#X connect 5 0 7 0;
#X connect 6 0 1 0;
