#N canvas 2 90 450 300 12;
#X obj 31 36 inlet;
#X obj 30 209 outlet~;
#X obj 31 80 tabwrite \$0-outlet;
#X obj 30 114 table \$0-outlet 64;
#X obj 31 181 tabplay~ \$0-outlet;
#X obj 154 53 r \$1-inlet_index;
#X obj 31 152 r \$1-outlet-bang;
#X connect 0 0 2 0;
#X connect 4 0 1 0;
#X connect 5 0 2 1;
#X connect 6 0 4 0;
