#N canvas 978 322 409 499 10;
#X obj 45 142 gemhead;
#X obj 43 173 translateXYZ;
#X obj 25 108 unpack s f f;
#X obj 25 85 mass2D mass 1 \$1 \$2;
#X msg 37 299 setX \$1 \, setY \$2;
#X obj 13 276 r link;
#X obj 25 39 loadbang;
#X msg 175 150 1 0 0;
#X obj 175 23 inlet;
#X obj 43 196 color 1 1 1;
#X obj 43 217 circle 0.05;
#X obj 109 7 r reset;
#X obj 34 329 iCircle2D mass 0 0 0.0001 0.15 0 0 0.3 0 0 0 0.31;
#X msg 109 30 reset;
#X msg 25 62 setYmin -3 \, setYmax 15 \, setXmin -3 \, setXmax 3 \, setT 0.9;
#X connect 0 0 1 0;
#X connect 1 0 9 0;
#X connect 2 1 1 1;
#X connect 2 2 1 2;
#X connect 3 0 2 0;
#X connect 3 0 4 0;
#X connect 4 0 12 0;
#X connect 5 0 12 0;
#X connect 6 0 14 0;
#X connect 7 0 9 1;
#X connect 8 0 7 0;
#X connect 9 0 10 0;
#X connect 11 0 13 0;
#X connect 13 0 3 0;
#X connect 14 0 3 0;
